<svg xmlns="http://www.w3.org/2000/svg" width="256" height="44" fill="none"><path fill="#DBD0B9" d="M74.826 25.854a7.564 7.564 0 0 1-1.803 1.683 9.703 9.703 0 0 1-2.167 1.07c-.75.263-1.509.45-2.263.58a18.112 18.112 0 0 1-4.396.198 18.305 18.305 0 0 1-3.797-.727c-.282-.086-.555-.164-.815-.268-.13-.048-.256-.091-.382-.139-.06-.021-.125-.047-.186-.069-.06-.026-.117-.052-.182-.078-.234-.1-.464-.195-.68-.29a72.414 72.414 0 0 0-.616-.298 5.657 5.657 0 0 1-.278-.147c-.09-.048-.177-.1-.264-.143-.17-.096-.334-.178-.473-.273-.147-.09-.281-.173-.407-.247-.121-.078-.234-.147-.33-.216l-.602-.42s.225.13.637.364c.1.06.217.12.347.186.13.065.269.134.42.212.148.082.317.147.495.23l.268.12c.091.04.187.083.287.122a18.415 18.415 0 0 0 6.593 1.333c1.335.012 2.748-.13 4.153-.455 1.4-.329 2.787-.848 3.91-1.68a6.324 6.324 0 0 0 1.43-1.453c.39-.546.664-1.147.803-1.757.069-.303.108-.61.108-.905 0-.298-.04-.593-.108-.874a4.33 4.33 0 0 0-.295-.805 3.25 3.25 0 0 0-.451-.68c-.082-.103-.178-.19-.265-.28-.052-.04-.1-.083-.147-.122-.043-.043-.095-.07-.143-.108l-.074-.052-.078-.043c-.052-.03-.1-.065-.151-.087-.053-.026-.105-.047-.152-.07-.052-.025-.104-.038-.156-.06l-.078-.026-.078-.021c-.057-.013-.109-.026-.16-.04-.11-.012-.213-.038-.322-.038a2.643 2.643 0 0 0-1.647.398 1.988 1.988 0 0 0-.641.632c-.278.446-.304.97-.23 1.38.07.42.23.745.381.978.156.238.308.394.434.511.134.121.23.203.295.264.143.134.16.23.138.333a.24.24 0 0 1-.065.143c-.043.04-.117.074-.238.082-.126.013-.303-.008-.542-.095a2.347 2.347 0 0 1-.837-.554 3.252 3.252 0 0 1-.78-1.376 3.316 3.316 0 0 1-.117-1.073c.022-.398.121-.849.364-1.281a3.28 3.28 0 0 1 1.036-1.13c.451-.311.993-.537 1.6-.645a4.29 4.29 0 0 1 .95-.047c.164.004.333.039.502.06.082.018.17.04.256.057.039.012.082.021.126.034.043.013.086.026.13.043.082.03.169.052.251.091l.256.117c.087.04.16.087.243.134.038.022.078.048.117.07l.117.082c.078.052.156.104.225.164.074.06.147.126.221.186a5.017 5.017 0 0 1 1.053 1.402c.17.36.304.74.395 1.134.087.399.134.81.126 1.225-.009.42-.07.831-.174 1.234a6.23 6.23 0 0 1-1.097 2.22Z"/><path fill="#DBD0B9" d="M11.038 28.517c.005.66.408 1.36.951 1.724.272.179.565.275.85.262.07-.009.14-.004.21-.026l.101-.026a.677.677 0 0 1 .101-.035c.013-.01.03-.014.048-.018l.048-.026.093-.053c.03-.021.06-.039.091-.06l.044-.032.044-.039.083-.07.08-.087.039-.04.035-.048.07-.092c.088-.135.166-.27.223-.424.062-.149.092-.306.123-.46.018-.157.026-.31.004-.459a2.019 2.019 0 0 0-.302-.857 2.787 2.787 0 0 0-.644-.717 3.51 3.51 0 0 0-.846-.503 2.719 2.719 0 0 0-.399-.145c-.078.079-.162.162-.236.245-.25.289-.456.608-.6.945l-.027.066-.026.06-.044.132c-.022.088-.048.175-.065.263-.014.087-.04.175-.04.262l-.013.131c0 .044.004.083.004.127Zm38.852-7.629a2.949 2.949 0 0 0 .162-1.028c0-.11-.009-.21-.026-.315a2.236 2.236 0 0 0-.561-1.137c-.294-.302-.653-.46-1.017-.437-.368.021-.749.231-1.038.55a2.114 2.114 0 0 0-.364.539c-.026.048-.044.1-.065.153-.022.048-.035.1-.049.149-.017.052-.026.109-.039.162a2.253 2.253 0 0 0-.03.17c-.07.45-.027.936.087 1.417.118.482.298.967.526 1.435l.079.18c.026.056.06.113.092.17l.18.346c.06.113.126.223.192.336.048.08.092.158.14.237.07-.088.14-.17.206-.258.075-.11.158-.215.237-.32l.223-.328c.154-.218.298-.442.43-.665.267-.442.495-.896.635-1.356Zm-19.516-4.816c.237.184.509.341.793.433.145.044.294.079.447.088a1.43 1.43 0 0 0 .863-.193 1.48 1.48 0 0 0 .36-.297c.206-.236.293-.503.228-.775-.031-.135-.101-.275-.206-.406a1.4 1.4 0 0 0-.425-.35 1.659 1.659 0 0 0-.552-.193c-.049 0-.097-.013-.145-.008-.048 0-.092-.01-.145 0l-.083.004a3.025 3.025 0 0 1-.083.013c-.053.004-.105.018-.162.026-.438.097-.89.355-1.315.713-.087.079-.175.158-.263.24.027.036.049.066.075.097.17.219.377.429.613.608ZM.457 28.762c.175-.175.42-.385.753-.639.67-.503 1.696-1.194 3.34-1.942.411-.18.858-.372 1.353-.55.49-.185 1.025-.36 1.613-.521a14.06 14.06 0 0 1 1.927-.425c.71-.1 1.508-.14 2.358 0 .21.03.425.079.635.14.022-.009.035-.017.053-.026.1-.057.206-.105.306-.153.206-.083.412-.18.623-.245.84-.293 1.704-.398 2.528-.403a9.91 9.91 0 0 1 2.344.311c.539.14 1.052.315 1.53.516a88.772 88.772 0 0 0-2.03-1.535c-1.533-1.129-3.04-2.117-4.508-2.918a23.55 23.55 0 0 0-2.178-1.054c-.088-.035-.175-.075-.263-.114-.087-.035-.18-.066-.267-.1-.175-.07-.35-.136-.521-.206-.176-.061-.351-.118-.522-.175-.17-.061-.337-.122-.508-.166a18.067 18.067 0 0 0-3.725-.744 14.449 14.449 0 0 0-2.852.026c-.386.053-.732.088-1.025.158-.294.066-.544.105-.74.17l-.601.167s.206-.066.596-.184c.197-.066.447-.118.74-.188.29-.079.636-.123 1.026-.188.775-.1 1.744-.17 2.87-.1a18.644 18.644 0 0 1 4.298.813c.17.052.35.11.53.166.171.066.355.127.535.192.087.031.18.062.271.097.088.04.18.074.272.109.732.284 1.472.63 2.226 1.015 1.507.774 3.05 1.74 4.622 2.839 1.573 1.093 3.177 2.323 4.868 3.565 1.692 1.242 3.47 2.498 5.412 3.6 1.94 1.094 4.048 2.038 6.31 2.559.14.03.28.07.42.092l.43.079c.284.06.573.091.862.13.574.075 1.157.106 1.74.101a13.45 13.45 0 0 0 3.483-.476 11.754 11.754 0 0 0 3.225-1.426 9.276 9.276 0 0 0 2.537-2.402l.066-.092.079-.122c.039-.057.074-.11.11-.17l.109-.18.219-.355.11-.174.056-.088.027-.044c.004-.026.022-.013.035-.004.425.267.85.534 1.27.8.132.084.263.158.395.237l.403.227c.263.157.534.293.806.438a28.811 28.811 0 0 0 3.365 1.487c1.152.424 2.322.774 3.514 1.058.298.066.592.14.89.202.302.056.6.113.898.17l.902.145.224.035.228.026.451.057c1.2.135 2.406.214 3.602.218 1.2 0 2.388-.06 3.558-.188a29.754 29.754 0 0 0 3.452-.568c.565-.118 1.118-.272 1.67-.416.271-.083.543-.162.815-.245l.206-.061.197-.07c.135-.044.267-.088.403-.136a28.058 28.058 0 0 0 3.076-1.25c.986-.473 1.936-.98 2.826-1.545.451-.271.88-.569 1.314-.862.434-.293.863-.586 1.293-.87.767-.512 1.55-.997 2.366-1.4a7.196 7.196 0 0 0 1.165-1.754c.119-.24.21-.499.294-.77.035-.136.083-.271.11-.411.013-.07.03-.14.043-.21.013-.07.022-.144.031-.214.017-.075.022-.145.03-.22.005-.074.014-.148.018-.218.005-.149.018-.297.009-.446a4.48 4.48 0 0 0-.105-.901 3.872 3.872 0 0 0-.29-.866 3.674 3.674 0 0 0-.486-.788 4.465 4.465 0 0 0-1.49-1.172c-.289-.14-.6-.254-.915-.341a5.464 5.464 0 0 0-.964-.149 5.23 5.23 0 0 0-.977.048c-.08.018-.162.022-.241.044l-.237.052a4.553 4.553 0 0 0-1.319.564c-.263.176-.5.373-.71.591a3.44 3.44 0 0 0-.525.73c-.035.066-.075.132-.105.202l-.088.206c-.053.14-.11.28-.14.424-.044.14-.066.284-.097.429-.009.074-.013.144-.026.218-.009.07-.004.145-.009.215-.009.284.009.568.07.835.062.263.145.52.268.744.017.03.026.061.043.087l.053.079c.035.052.061.11.1.157.04.049.075.101.119.15.035.052.083.091.123.14.083.095.184.17.271.253l.15.11.07.052.078.048c.053.03.101.061.15.096.056.026.109.053.161.079.101.057.21.087.316.135.425.154.85.197 1.231.171.381-.03.719-.144.99-.302a2 2 0 0 0 .373-.275c.061-.049.11-.101.157-.154.044-.052.093-.105.132-.161.166-.22.263-.442.311-.648.048-.205.044-.407.013-.55a1.28 1.28 0 0 0-.188-.425 1.912 1.912 0 0 0-.276-.306 1.732 1.732 0 0 0-.5-.294c-.14-.056-.245-.074-.328-.105-.171-.039-.241-.113-.28-.21-.023-.048-.04-.096-.023-.153.014-.056.053-.126.158-.2.11-.066.28-.15.548-.167.258-.017.613.035 1.003.24.189.11.394.25.583.451.188.206.372.464.49.805.123.35.158.73.097 1.137a2.89 2.89 0 0 1-.469 1.208 3.074 3.074 0 0 1-.206.28 2.33 2.33 0 0 1-.245.267c-.171.174-.373.336-.596.48a3.772 3.772 0 0 1-2.221.556c-1.06.81-2.52 1.811-4.404 2.809a32.64 32.64 0 0 1-8.369 3.048 31.09 31.09 0 0 1-5.32.683c-1.87.079-3.837-.009-5.831-.372a20.595 20.595 0 0 1-2.984-.792 17.053 17.053 0 0 1-2.896-1.325 15.696 15.696 0 0 1-2.633-1.92 12.653 12.653 0 0 1-1.24-1.278 16.2 16.2 0 0 1-1.148 1.177c-.828.774-1.731 1.47-2.704 2.056a14.55 14.55 0 0 1-3.063 1.4c-4.294 1.417-9.113.371-12.128-2.463-.092-.092-.184-.18-.276-.267l-.131-.136c-.049-.043-.088-.096-.132-.144-.083-.096-.166-.188-.25-.284l-.122-.145-.066-.07-.052-.074a8.973 8.973 0 0 1-.824-1.242 9.957 9.957 0 0 1-.995-2.634 9.91 9.91 0 0 1 .171-5.07 8.648 8.648 0 0 1 .982-2.117c.188-.284.38-.555.595-.805a5.592 5.592 0 0 1-.333-1.964c.005-.113.01-.218.018-.319.004-.1.022-.201.03-.297.018-.188.062-.364.097-.52.153-.644.381-1.05.548-1.313.175-.267.315-.385.403-.442.092-.057.144-.044.184-.017.048.03.079.074.074.179-.008.1-.057.258-.131.53-.075.266-.197.647-.254 1.206-.01.14-.027.29-.027.45 0 .08-.004.163 0 .25l.014.267c.03.346.092.726.223 1.137l.009-.008c.276-.232.583-.442.907-.613.32-.17.67-.306 1.038-.38.088-.018.18-.035.272-.044.048-.009.092-.013.14-.018l.136-.008c.092-.009.193 0 .29 0 .1.004.192.022.288.035a2.924 2.924 0 0 1 1.836 1.067c.22.28.386.621.456.984.074.363.048.74-.061 1.076a2.471 2.471 0 0 1-.509.853c-.43.46-.964.726-1.516.836a2.858 2.858 0 0 1-.815.03 3.397 3.397 0 0 1-1.35-.472 4.343 4.343 0 0 1-.946-.787c-.096-.1-.18-.202-.263-.306a3.819 3.819 0 0 0-.131.196 8.002 8.002 0 0 0-.451.836c-.132.297-.25.604-.35.927-.386 1.29-.465 2.795-.12 4.313.172.761.456 1.518.85 2.24.202.359.435.709.693 1.041.132.162.28.32.416.486.04.039.075.083.11.122l.118.114c.08.074.158.153.237.227 1.284 1.208 2.992 2.074 4.859 2.467a11.357 11.357 0 0 0 5.806-.275 13.32 13.32 0 0 0 2.778-1.238c.889-.52 1.726-1.146 2.497-1.85a16.86 16.86 0 0 0 1.24-1.26c-.04-.053-.079-.11-.118-.162-.084-.114-.15-.236-.228-.359-.07-.118-.149-.236-.22-.358l-.205-.377c-.03-.061-.066-.122-.097-.188l-.092-.192a8.166 8.166 0 0 1-.626-1.619c-.149-.577-.228-1.203-.145-1.837.014-.083.022-.162.04-.24.013-.08.03-.158.057-.237.022-.083.04-.162.07-.24.03-.08.057-.158.096-.232.136-.302.316-.586.535-.836.223-.253.486-.472.789-.643.306-.17.657-.288 1.025-.32.368-.03.745.032 1.082.172.342.14.635.35.88.59a3.433 3.433 0 0 1 .96 2.765 4.72 4.72 0 0 1-.18.936c-.175.599-.442 1.137-.731 1.645-.149.253-.302.494-.46.73l-.237.359c-.083.113-.17.227-.25.345-.148.206-.306.407-.464.604a14.122 14.122 0 0 0 3.68 3.206c.873.53 1.78.971 2.722 1.321.937.35 1.892.621 2.848.827 1.914.398 3.834.53 5.67.499a31.057 31.057 0 0 0 5.24-.538 32.663 32.663 0 0 0 8.36-2.791 32.424 32.424 0 0 0 4.373-2.612 4.209 4.209 0 0 1-1.113-.231c-.158-.062-.32-.114-.474-.197-.078-.04-.157-.075-.232-.114-.074-.048-.149-.092-.227-.14l-.114-.07-.11-.079c-.074-.052-.145-.11-.219-.162-.136-.126-.285-.24-.412-.389-.066-.07-.136-.136-.193-.214a4.709 4.709 0 0 1-.18-.232c-.06-.079-.109-.166-.161-.25l-.08-.13c-.026-.04-.043-.088-.07-.132a4.357 4.357 0 0 1-.39-1.128 4.61 4.61 0 0 1-.078-1.203c.008-.101.008-.202.026-.302.013-.1.026-.201.044-.298.04-.2.079-.402.144-.595.057-.196.132-.384.21-.577.045-.092.093-.184.137-.276.043-.096.1-.183.148-.27.215-.355.47-.696.776-.99.302-.292.635-.546.995-.756.359-.21.74-.372 1.134-.499.198-.065.4-.11.596-.153l.303-.052c.1-.018.206-.022.302-.035.408-.04.815-.04 1.218.004a6.28 6.28 0 0 1 1.179.254c.381.122.745.284 1.09.48.684.39 1.28.92 1.718 1.545.22.315.4.652.53 1.002.132.345.224.7.272 1.05.048.354.066.704.044 1.04-.004.171-.026.338-.044.504-.013.078-.026.162-.044.24a2.09 2.09 0 0 1-.043.24c-.022.08-.04.158-.057.237l-.066.228c-.044.153-.1.297-.149.441a7.273 7.273 0 0 1-.386.81 7.17 7.17 0 0 1-.858 1.203c.32-.132.644-.254.981-.355.486-.14.977-.245 1.468-.302a8.59 8.59 0 0 1 1.459-.03 6.9 6.9 0 0 1 1.41.25c.46.14.895.327 1.302.563.403.25.771.543 1.087.88a4.828 4.828 0 0 1 1.178 2.349c.08.415.11.83.088 1.238-.022.402-.079.8-.197 1.18-.114.377-.267.74-.469 1.068-.096.17-.215.32-.324.472l-.184.21-.092.105-.101.097c-.066.06-.127.127-.197.188-.07.057-.136.114-.206.17-.07.057-.14.11-.215.158-.074.048-.144.1-.219.148-.074.044-.149.084-.223.127-.04.022-.075.044-.11.066l-.118.052c-.079.04-.153.075-.228.11l-.237.092a4.951 4.951 0 0 1-1.875.32 4.548 4.548 0 0 1-2.45-.784 4.62 4.62 0 0 1-.608-.507c-.736-.73-1.135-1.68-1.126-2.577 0-.446.096-.853.24-1.216.15-.359.347-.674.579-.94.232-.263.5-.477.78-.626.28-.153.57-.245.859-.289.07-.008.136-.008.206-.017.035 0 .07-.005.1-.005a.792.792 0 0 0 .101.005l.193.013c.061.009.123.022.184.03.057.01.114.023.171.04.057.018.11.03.162.048.105.04.202.075.294.118.368.18.635.403.823.621.092.114.176.215.233.32.03.052.06.1.083.153.022.048.04.096.061.14.04.087.057.18.07.253a.67.67 0 0 1 .027.202.833.833 0 0 1 0 .148.335.335 0 0 1-.027.11c-.035.122-.083.14-.136.144-.048 0-.105-.017-.162-.11-.013-.021-.03-.047-.043-.078-.018-.03-.044-.066-.066-.105a.598.598 0 0 0-.075-.136c-.035-.048-.057-.104-.11-.157a.598.598 0 0 0-.065-.092c-.026-.03-.057-.057-.083-.092-.057-.065-.132-.127-.21-.192a2.02 2.02 0 0 0-.645-.355 1.725 1.725 0 0 0-.928-.065 1.76 1.76 0 0 0-.982.656 2.267 2.267 0 0 0-.478 1.461c.018.556.298 1.199.837 1.697.136.127.285.25.447.35.167.105.342.201.526.276.373.153.793.236 1.24.24.447 0 .92-.078 1.371-.267l.171-.065c.057-.03.114-.057.167-.083l.083-.044a.52.52 0 0 0 .083-.048c.053-.03.11-.066.162-.096.053-.035.106-.075.158-.11.048-.035.101-.074.15-.118.052-.04.096-.078.148-.122.044-.044.092-.088.136-.136l.07-.07.061-.074c.044-.048.088-.096.127-.149.075-.105.158-.21.215-.328.14-.223.241-.481.32-.748.083-.267.118-.555.132-.849a3.69 3.69 0 0 0-.075-.896 3.45 3.45 0 0 0-.832-1.64 3.95 3.95 0 0 0-.776-.613 4.763 4.763 0 0 0-.964-.411 5.93 5.93 0 0 0-1.104-.188 6.725 6.725 0 0 0-1.183.035 6.613 6.613 0 0 0-1.21.253c-.1.03-.197.062-.302.097a8.52 8.52 0 0 0-.302.113 8.33 8.33 0 0 0-.614.263c-.815.376-1.625.875-2.458 1.43-.42.28-.841.573-1.28.866-.437.298-.889.604-1.366.893a28.481 28.481 0 0 1-2.975 1.622 29.328 29.328 0 0 1-3.243 1.308c-.14.044-.28.092-.42.14l-.21.07-.215.062c-.285.087-.57.17-.855.253-.582.149-1.165.306-1.757.425a30.788 30.788 0 0 1-3.615.568 34.867 34.867 0 0 1-3.715.162 32.977 32.977 0 0 1-3.76-.271l-.473-.061-.232-.03-.237-.04c-.31-.057-.622-.11-.937-.162-.311-.066-.618-.127-.933-.193-.312-.065-.618-.144-.93-.218a32.311 32.311 0 0 1-3.645-1.15 30.603 30.603 0 0 1-3.483-1.606c-.285-.153-.566-.302-.837-.468l-.412-.245c-.14-.083-.276-.162-.412-.25l-.175-.118-.044-.03-.088-.057c-.022.013-.039.052-.057.079l-.035.048-.048.07c-.026.035-.052.065-.074.1a10.289 10.289 0 0 1-2.892 2.651 12.79 12.79 0 0 1-3.545 1.496c-1.236.32-2.497.46-3.746.446a13.824 13.824 0 0 1-1.862-.144c-.303-.048-.61-.087-.907-.153l-.447-.092c-.154-.03-.298-.074-.447-.11-2.362-.59-4.518-1.613-6.476-2.773-1.963-1.168-3.733-2.476-5.403-3.761-.398-.311-.793-.617-1.183-.92a14.37 14.37 0 0 0-1.253-.559c-.613-.24-1.27-.438-1.976-.573a9.297 9.297 0 0 0-2.195-.158c-.75.049-1.512.189-2.23.486-.057.022-.11.048-.167.07.245.14.482.302.71.486.368.301.701.678.955 1.11.259.442.438.937.482 1.492.026.271.005.538-.04.8a3.33 3.33 0 0 1-.223.766c-.1.25-.24.481-.399.7l-.127.162-.065.079-.075.074-.149.144-.162.136a2.597 2.597 0 0 1-1.617.569c-.04 0-.074 0-.114-.005l-.105-.008c-.074-.01-.149-.013-.223-.027l-.21-.052c-.036-.009-.07-.013-.106-.026l-.1-.035-.202-.08a3.689 3.689 0 0 1-.184-.095c-.132-.062-.241-.145-.355-.224-.057-.034-.105-.082-.158-.126a4.743 4.743 0 0 1-.153-.131l-.14-.15-.07-.07-.066-.078-.123-.158c-.04-.052-.07-.109-.11-.161-.034-.057-.074-.114-.104-.17l-.093-.176a3.194 3.194 0 0 1-.35-1.54c0-.07 0-.135.009-.2l.022-.193c.017-.132.052-.254.079-.377.03-.126.07-.244.114-.367.048-.114.087-.236.148-.346.163-.34.373-.651.605-.931a7.396 7.396 0 0 0-1.214.065c-.617.083-1.2.219-1.748.363-.552.145-1.056.298-1.52.455-.47.158-.894.32-1.293.477-1.573.634-2.598 1.194-3.304 1.562-.354.188-.63.328-.845.433-.22.1-.377.166-.5.197-.236.065-.32.004-.385-.079-.062-.079-.097-.175.044-.39.065-.104.18-.244.359-.415Z"/><path fill="#D7A563" fill-rule="evenodd" d="M125 11.25a.75.75 0 0 1 .75.75v1.26c.669-.01 1.413-.01 2.239-.01h.022c.826 0 1.57 0 2.239.01V12a.75.75 0 0 1 1.5 0v1.314c1.512.094 2.673.34 3.63 1.034a5.76 5.76 0 0 1 1.272 1.272c.586.807.848 1.75.974 2.917.124 1.142.124 2.581.124 4.418v.057c0 1.16 0 2.157-.029 3.014-.065 1.873-.267 3.25-1.069 4.354a5.76 5.76 0 0 1-1.272 1.272c-1.104.802-2.481 1.004-4.354 1.069-.858.029-1.855.029-3.015.029h-.056c-1.837 0-3.276 0-4.419-.124-1.165-.126-2.109-.388-2.916-.974a5.76 5.76 0 0 1-1.272-1.272c-.586-.807-.848-1.75-.974-2.916-.124-1.143-.124-2.582-.124-4.419v-.09c0-1.837 0-3.276.124-4.418.126-1.166.388-2.11.974-2.917a5.76 5.76 0 0 1 1.272-1.272c.957-.695 2.118-.94 3.63-1.034V12a.75.75 0 0 1 .75-.75Zm-.75 3.567c-1.362.094-2.148.309-2.748.745a4.24 4.24 0 0 0-.94.94c-.369.508-.585 1.158-.697 2.196-.114 1.052-.115 2.41-.115 4.302 0 1.892.001 3.25.115 4.302.112 1.038.328 1.688.697 2.196.262.36.579.678.94.94.508.37 1.158.585 2.196.697 1.052.114 2.41.115 4.302.115.848 0 1.592 0 2.252-.01.004-.475.019-.825.069-1.14a5.749 5.749 0 0 1 4.78-4.78c.314-.049.664-.064 1.138-.068.011-.66.011-1.404.011-2.252 0-1.892-.001-3.25-.115-4.302-.112-1.038-.328-1.688-.697-2.196a4.24 4.24 0 0 0-.94-.94c-.6-.436-1.386-.651-2.748-.745V15a.75.75 0 0 1-1.5 0v-.24c-.66-.01-1.402-.01-2.25-.01-.848 0-1.59 0-2.25.01V15a.75.75 0 0 1-1.5 0v-.183Zm11.933 11.936a5.94 5.94 0 0 0-.848.05 4.25 4.25 0 0 0-3.533 3.532 5.902 5.902 0 0 0-.049.848c1.36-.094 2.146-.31 2.745-.745a4.24 4.24 0 0 0 .94-.94c.436-.6.651-1.385.745-2.745Z" clip-rule="evenodd"/><path fill="#D7A563" d="M124 19a1 1 0 1 1-2 0 1 1 0 0 1 2 0ZM124 23a1 1 0 1 1-2 0 1 1 0 0 1 2 0ZM129 19a1 1 0 1 1-2 0 1 1 0 0 1 2 0ZM129 23a1 1 0 1 1-2 0 1 1 0 0 1 2 0ZM129 27a1 1 0 1 1-2 0 1 1 0 0 1 2 0ZM134 19a1 1 0 1 1-2 0 1 1 0 0 1 2 0ZM134 23a1 1 0 1 1-2 0 1 1 0 0 1 2 0ZM124 27a1 1 0 1 1-2 0 1 1 0 0 1 2 0Z"/><path fill="#DBD0B9" d="M181.173 25.854a7.564 7.564 0 0 0 1.804 1.683c.68.455 1.417.805 2.167 1.07.75.263 1.509.45 2.263.58 1.513.254 3.009.306 4.396.198a18.303 18.303 0 0 0 3.797-.727c.282-.086.555-.164.815-.268.13-.048.256-.091.382-.139.06-.021.125-.047.186-.069.061-.026.117-.052.182-.078.234-.1.464-.195.681-.29a72.5 72.5 0 0 1 .615-.298c.096-.048.187-.096.278-.147.091-.048.177-.1.264-.143.169-.096.334-.178.473-.273.147-.09.281-.173.407-.247.121-.078.234-.147.33-.216l.602-.42s-.225.13-.637.364c-.1.06-.217.12-.347.186-.13.065-.269.134-.42.212-.148.082-.317.147-.495.23l-.268.12c-.091.04-.187.083-.286.122a18.267 18.267 0 0 1-6.594 1.333 17.799 17.799 0 0 1-4.153-.455c-1.4-.329-2.787-.848-3.91-1.68a6.296 6.296 0 0 1-1.43-1.453 4.883 4.883 0 0 1-.802-1.757 4.053 4.053 0 0 1-.109-.905c0-.298.039-.593.109-.874.073-.286.173-.554.294-.805.126-.25.278-.48.451-.68.083-.103.178-.19.265-.28.052-.04.099-.083.147-.122.043-.043.095-.07.143-.108l.074-.052.078-.043c.052-.03.099-.065.151-.087.052-.026.105-.047.152-.07.052-.025.104-.038.156-.06l.078-.026.078-.021c.057-.013.109-.026.161-.04.108-.012.212-.038.321-.038a2.644 2.644 0 0 1 1.647.398c.286.177.494.398.641.632.278.446.304.97.23 1.38-.069.42-.23.745-.381.978a2.66 2.66 0 0 1-.434.511c-.134.121-.23.203-.295.264-.143.134-.16.23-.138.333.008.052.021.1.065.143.043.04.117.074.238.082.126.013.304-.008.542-.095.234-.086.533-.25.837-.554a3.3 3.3 0 0 0 .897-2.45 2.94 2.94 0 0 0-.364-1.28 3.28 3.28 0 0 0-1.036-1.13 4.06 4.06 0 0 0-1.6-.645 4.286 4.286 0 0 0-.949-.047c-.165.004-.334.039-.503.06-.082.018-.169.04-.256.057-.039.012-.082.021-.126.034-.043.013-.086.026-.13.043-.082.03-.169.052-.251.091l-.256.117c-.086.04-.16.087-.243.134-.039.022-.078.048-.117.07l-.117.082c-.078.052-.156.104-.225.164-.074.06-.147.126-.221.186a4.958 4.958 0 0 0-1.053 1.402c-.17.36-.304.74-.395 1.134-.087.399-.134.81-.126 1.225.009.42.07.831.174 1.234.208.809.594 1.562 1.096 2.22Z"/><path fill="#DBD0B9" d="M244.962 28.517c-.005.66-.408 1.36-.951 1.724-.272.179-.565.275-.85.262-.07-.009-.14-.004-.21-.026a3.61 3.61 0 0 0-.101-.026.697.697 0 0 0-.101-.035c-.013-.01-.031-.014-.048-.018l-.048-.026-.092-.053c-.031-.021-.062-.039-.092-.06l-.044-.032-.044-.039-.083-.07-.079-.087-.04-.04a1.657 1.657 0 0 1-.035-.048l-.07-.092a2.214 2.214 0 0 1-.223-.424c-.062-.149-.092-.306-.123-.46a2.009 2.009 0 0 1 .298-1.317 2.8 2.8 0 0 1 .644-.716c.254-.206.543-.377.846-.503.131-.062.263-.105.398-.145.079.079.163.162.237.245.25.289.456.608.6.945l.027.066.026.06.044.132c.022.088.048.175.065.263.014.087.04.175.04.262l.013.131c0 .044-.004.083-.004.127Zm-38.852-7.629a2.994 2.994 0 0 1-.162-1.028c0-.11.009-.21.026-.315.075-.424.276-.84.561-1.137.294-.302.653-.46 1.017-.437.368.021.749.231 1.038.55.149.158.272.346.364.539.026.048.043.1.065.153.022.048.035.1.049.149.017.052.026.109.039.162.013.056.022.113.031.17.07.45.026.936-.088 1.417a7.241 7.241 0 0 1-.526 1.435l-.079.18c-.026.056-.061.113-.092.17l-.179.346c-.062.113-.127.223-.193.336-.048.08-.092.158-.14.237-.07-.088-.14-.17-.206-.258-.075-.11-.158-.215-.237-.32l-.223-.328a10.021 10.021 0 0 1-.43-.665c-.267-.442-.495-.896-.635-1.356Zm19.516-4.816a2.657 2.657 0 0 1-.793.433 1.94 1.94 0 0 1-.447.088 1.432 1.432 0 0 1-.434-.027 1.614 1.614 0 0 1-.43-.166 1.498 1.498 0 0 1-.359-.297c-.206-.236-.293-.503-.228-.775a1.03 1.03 0 0 1 .206-.406c.11-.136.254-.258.425-.35.171-.096.36-.162.552-.193.049 0 .097-.013.145-.008.048 0 .092-.01.145 0l.083.004.083.013c.053.004.105.018.162.026.438.097.89.355 1.315.713.087.079.175.158.263.24-.027.036-.049.066-.075.097a3.382 3.382 0 0 1-.613.608Zm29.917 12.69a7.581 7.581 0 0 0-.753-.639c-.671-.503-1.696-1.194-3.339-1.942-.412-.18-.859-.372-1.354-.55a18.859 18.859 0 0 0-1.613-.521 14.061 14.061 0 0 0-1.927-.425c-.71-.1-1.508-.14-2.358 0-.21.03-.425.079-.635.14-.022-.009-.035-.017-.053-.026-.1-.057-.206-.105-.306-.153-.206-.083-.412-.18-.623-.245-.841-.293-1.704-.398-2.528-.403a9.91 9.91 0 0 0-2.344.311 11.2 11.2 0 0 0-1.529.516 87.476 87.476 0 0 1 2.029-1.535c1.533-1.129 3.04-2.117 4.508-2.918a23.481 23.481 0 0 1 2.178-1.054c.088-.035.175-.075.263-.114.087-.035.179-.066.267-.1.175-.07.351-.136.522-.206.175-.061.35-.118.521-.175.171-.061.337-.122.508-.166a18.073 18.073 0 0 1 3.725-.744c1.112-.1 2.072-.057 2.852.026.386.053.732.088 1.025.158.294.066.544.105.741.17l.6.167s-.206-.066-.596-.184c-.197-.066-.447-.118-.74-.188-.29-.079-.636-.123-1.026-.188-.775-.1-1.744-.17-2.87-.1a18.655 18.655 0 0 0-4.298.813c-.171.052-.35.11-.53.166-.171.066-.355.127-.535.192-.087.031-.179.062-.271.097-.088.04-.18.074-.272.109-.732.284-1.472.63-2.226 1.015-1.507.774-3.049 1.74-4.622 2.839-1.573 1.093-3.177 2.323-4.868 3.565-1.692 1.242-3.471 2.498-5.412 3.6-1.941 1.094-4.048 2.038-6.309 2.559-.14.03-.281.07-.421.092l-.429.079c-.285.06-.574.091-.863.13-.574.075-1.157.106-1.74.101a13.447 13.447 0 0 1-3.483-.476 11.749 11.749 0 0 1-3.225-1.426 9.284 9.284 0 0 1-2.537-2.402l-.066-.092-.079-.122a2.36 2.36 0 0 1-.109-.17l-.11-.18-.219-.355-.109-.174-.057-.088-.027-.044c-.004-.026-.021-.013-.035-.004-.425.267-.85.534-1.27.8-.132.084-.263.158-.395.237l-.403.227c-.263.157-.534.293-.806.438a28.832 28.832 0 0 1-3.365 1.487 30.885 30.885 0 0 1-3.514 1.058c-.298.066-.592.14-.89.202-.302.056-.6.113-.898.17l-.902.145-.224.035-.228.026-.451.057a33.232 33.232 0 0 1-3.602.218c-1.2 0-2.388-.06-3.557-.188a29.731 29.731 0 0 1-3.453-.568c-.565-.118-1.117-.272-1.67-.416-.271-.083-.543-.162-.815-.245l-.205-.061-.198-.07a28.14 28.14 0 0 1-3.479-1.387 27.414 27.414 0 0 1-2.826-1.544c-.451-.271-.88-.569-1.314-.862-.434-.293-.863-.586-1.293-.87-.767-.512-1.551-.997-2.366-1.4a7.169 7.169 0 0 1-1.165-1.754 5.09 5.09 0 0 1-.294-.77c-.035-.136-.083-.271-.109-.411-.014-.07-.031-.14-.044-.21-.013-.07-.022-.144-.031-.214-.018-.075-.022-.145-.031-.22-.004-.074-.013-.148-.017-.218-.005-.149-.018-.297-.009-.446a4.43 4.43 0 0 1 .105-.901c.057-.298.162-.586.289-.866.127-.28.29-.543.487-.788a4.468 4.468 0 0 1 1.489-1.172c.29-.14.601-.254.916-.341.316-.079.636-.127.964-.149a5.23 5.23 0 0 1 .977.048c.079.018.162.022.241.044l.237.052a4.56 4.56 0 0 1 1.319.564c.263.176.499.373.71.591.21.219.381.468.525.73.035.066.075.132.106.202l.087.206c.053.14.11.28.14.424.044.14.066.284.097.429.009.074.013.144.026.218.009.07.004.145.009.215.009.284-.009.568-.07.835-.062.263-.145.52-.268.744-.017.03-.026.061-.043.087l-.053.079c-.035.052-.061.11-.101.157-.039.049-.074.101-.118.15-.035.052-.083.091-.123.14-.083.095-.184.17-.271.253l-.149.11-.07.052-.079.048c-.053.03-.101.061-.149.096-.057.026-.11.053-.162.079-.101.057-.211.087-.316.135-.425.154-.85.197-1.231.171a2.35 2.35 0 0 1-.99-.302 1.996 1.996 0 0 1-.373-.275c-.061-.049-.109-.101-.158-.154-.043-.052-.092-.105-.131-.161a1.72 1.72 0 0 1-.311-.648 1.312 1.312 0 0 1-.013-.55c.035-.154.105-.303.188-.425.088-.123.184-.223.276-.306a1.74 1.74 0 0 1 .5-.294c.14-.056.245-.074.328-.105.171-.039.241-.113.281-.21.022-.048.039-.096.022-.153-.013-.056-.053-.126-.158-.2a1.17 1.17 0 0 0-.548-.167c-.258-.017-.613.035-1.003.24a2.303 2.303 0 0 0-1.074 1.255c-.122.351-.157.732-.096 1.138.057.407.21.823.469 1.208.061.096.131.188.206.28.074.091.153.183.245.267.171.174.373.336.596.48a3.77 3.77 0 0 0 2.221.556 31.68 31.68 0 0 0 4.404 2.809 32.63 32.63 0 0 0 8.369 3.048c1.66.36 3.448.608 5.319.683 1.871.079 3.838-.009 5.832-.372a20.586 20.586 0 0 0 2.984-.792c.99-.345 1.963-.787 2.896-1.325a15.694 15.694 0 0 0 2.633-1.92c.443-.394.855-.823 1.24-1.278.364.411.745.805 1.148 1.177.829.774 1.731 1.47 2.704 2.056a14.52 14.52 0 0 0 3.063 1.4c4.294 1.417 9.113.371 12.128-2.463.092-.092.184-.18.276-.267l.131-.136c.048-.043.088-.096.132-.144.083-.096.166-.188.25-.284l.122-.145.066-.07.052-.074c.316-.398.588-.814.824-1.242a9.948 9.948 0 0 0 .995-2.634 9.909 9.909 0 0 0-.171-5.07 9.004 9.004 0 0 0-.425-1.106 8.856 8.856 0 0 0-.556-1.01 8.19 8.19 0 0 0-.596-.806 5.634 5.634 0 0 0 .333-1.964c-.005-.113-.009-.218-.018-.319-.004-.1-.022-.201-.031-.297-.017-.188-.061-.364-.096-.52a4.115 4.115 0 0 0-.548-1.313c-.175-.267-.315-.385-.403-.442-.092-.057-.144-.044-.184-.017-.048.03-.079.074-.074.179.008.1.057.258.131.53.075.266.197.647.254 1.206.009.14.027.29.027.45 0 .08.004.163 0 .25l-.014.267c-.03.346-.092.726-.223 1.137l-.009-.008a5.155 5.155 0 0 0-.907-.613c-.32-.17-.67-.306-1.038-.38a2.715 2.715 0 0 0-.272-.044 1.52 1.52 0 0 0-.14-.018l-.136-.008c-.092-.009-.193 0-.289 0-.101.004-.193.022-.289.035a2.923 2.923 0 0 0-1.836 1.067c-.219.28-.386.621-.456.984-.074.363-.048.74.061 1.076.114.333.298.622.509.853.429.46.964.726 1.516.836.271.052.565.057.815.03a3.394 3.394 0 0 0 1.349-.472 4.263 4.263 0 0 0 .947-.787c.096-.1.179-.202.263-.306.043.06.087.126.131.196.162.263.316.543.451.836.132.297.25.604.351.927a8.548 8.548 0 0 1 .118 4.313 8.602 8.602 0 0 1-.85 2.24 8.41 8.41 0 0 1-.692 1.041c-.132.162-.281.32-.416.486-.04.039-.075.083-.11.122l-.118.114c-.079.074-.158.153-.237.227-1.284 1.208-2.992 2.074-4.859 2.467a11.358 11.358 0 0 1-5.806-.275 13.345 13.345 0 0 1-2.778-1.238 14.82 14.82 0 0 1-2.497-1.85 16.744 16.744 0 0 1-1.24-1.26l.118-.162c.083-.114.149-.236.228-.359.07-.118.149-.236.219-.358l.206-.377c.031-.061.066-.122.096-.188l.092-.192a8.112 8.112 0 0 0 .627-1.619c.149-.577.228-1.203.145-1.837-.013-.083-.022-.162-.04-.24a1.448 1.448 0 0 0-.057-.237c-.022-.083-.039-.162-.07-.24-.031-.08-.057-.158-.096-.232a3.359 3.359 0 0 0-.535-.836 3.037 3.037 0 0 0-.788-.643 2.564 2.564 0 0 0-1.026-.32 2.34 2.34 0 0 0-1.082.172c-.342.14-.635.35-.881.59a3.435 3.435 0 0 0-.959 2.765c.026.323.092.634.179.936.176.599.443 1.137.732 1.645.149.253.302.494.46.73l.237.359c.083.113.171.227.249.345.149.206.307.407.465.604a14.116 14.116 0 0 1-3.681 3.206 15.93 15.93 0 0 1-2.721 1.321c-.937.35-1.892.621-2.848.827-1.914.398-3.833.53-5.669.499a31.062 31.062 0 0 1-5.241-.538 32.667 32.667 0 0 1-8.36-2.791 32.435 32.435 0 0 1-4.373-2.612 4.21 4.21 0 0 0 1.113-.231c.158-.062.32-.114.473-.197.079-.04.158-.075.233-.114.074-.048.149-.092.228-.14l.113-.07.11-.079c.074-.052.145-.11.219-.162.136-.126.285-.24.412-.389.066-.07.136-.136.193-.214.061-.075.122-.153.179-.232.062-.079.11-.166.162-.25l.079-.13c.027-.04.044-.088.07-.132.184-.35.307-.735.39-1.128.084-.394.101-.8.079-1.203-.008-.101-.009-.202-.026-.302-.013-.1-.026-.201-.044-.298a4.574 4.574 0 0 0-.144-.595 5.694 5.694 0 0 0-.211-.577c-.044-.092-.092-.184-.136-.276-.043-.096-.1-.183-.149-.27a4.761 4.761 0 0 0-.775-.99 5.167 5.167 0 0 0-.995-.756 5.674 5.674 0 0 0-1.135-.499c-.197-.065-.398-.11-.595-.153l-.303-.052c-.101-.018-.206-.022-.302-.035a5.965 5.965 0 0 0-1.218.004 6.281 6.281 0 0 0-1.179.254 5.781 5.781 0 0 0-1.091.48 5.3 5.3 0 0 0-1.717 1.545 4.57 4.57 0 0 0-.531 1.002c-.131.345-.223.7-.271 1.05a5.242 5.242 0 0 0-.044 1.04c.004.171.026.338.044.504.013.078.026.162.044.24.008.083.026.162.043.24.022.08.04.158.057.237l.066.228c.044.153.101.297.149.441.118.285.241.556.386.81.258.459.556.857.858 1.203a10.427 10.427 0 0 0-.981-.355 9.112 9.112 0 0 0-1.468-.302 8.59 8.59 0 0 0-1.459-.03 6.907 6.907 0 0 0-1.411.25c-.46.14-.894.327-1.301.563-.403.25-.771.543-1.087.88a4.82 4.82 0 0 0-1.178 2.349c-.079.415-.11.83-.088 1.238.022.402.079.8.197 1.18.114.377.267.74.469 1.068.096.17.215.32.324.472l.184.21.092.105.101.097c.066.06.127.127.197.188.07.057.136.114.206.17.07.057.14.11.215.158.074.048.144.1.219.148.074.044.149.084.223.127.04.022.075.044.11.066l.118.052c.079.04.153.075.228.11l.237.092a4.946 4.946 0 0 0 1.875.32 4.55 4.55 0 0 0 2.449-.784 4.58 4.58 0 0 0 .609-.507c.736-.73 1.135-1.68 1.126-2.577a3.26 3.26 0 0 0-.241-1.216 3.439 3.439 0 0 0-.578-.94 2.825 2.825 0 0 0-.78-.626 2.59 2.59 0 0 0-.859-.289c-.07-.008-.136-.008-.206-.017-.035 0-.07-.005-.1-.005a.794.794 0 0 1-.101.005l-.193.013c-.061.009-.123.022-.184.03a1.212 1.212 0 0 0-.171.04c-.057.018-.109.03-.162.048-.105.04-.202.075-.294.118-.368.18-.635.403-.823.621-.092.114-.176.215-.233.32-.03.052-.061.1-.083.153-.022.048-.039.096-.061.14-.04.087-.057.18-.07.253a.668.668 0 0 0-.027.202.916.916 0 0 0 0 .148.353.353 0 0 0 .027.11c.035.122.083.14.136.144.048 0 .105-.017.162-.11.013-.021.03-.047.043-.078.018-.03.044-.066.066-.105a.626.626 0 0 1 .075-.136c.035-.048.057-.104.109-.157a.651.651 0 0 1 .066-.092c.026-.03.057-.057.083-.092.057-.065.132-.127.211-.192.157-.131.372-.263.644-.355.267-.096.596-.135.929-.065.328.079.701.284.981.656a2.267 2.267 0 0 1 .478 1.461c-.018.556-.298 1.199-.837 1.697-.136.127-.285.25-.447.35a3.365 3.365 0 0 1-.526.276 3.346 3.346 0 0 1-1.24.24 3.57 3.57 0 0 1-1.371-.267l-.171-.065c-.057-.03-.114-.057-.167-.083l-.083-.044a.494.494 0 0 1-.083-.048c-.053-.03-.11-.066-.162-.096-.053-.035-.106-.075-.158-.11a1.75 1.75 0 0 1-.149-.118c-.053-.04-.097-.078-.149-.122-.044-.044-.092-.088-.136-.136l-.07-.07-.061-.074a1.915 1.915 0 0 1-.127-.149c-.075-.105-.158-.21-.215-.328a3.37 3.37 0 0 1-.451-1.597 3.66 3.66 0 0 1 .074-.896 3.446 3.446 0 0 1 .832-1.64c.228-.233.487-.438.776-.613.294-.166.618-.306.964-.411a5.944 5.944 0 0 1 1.104-.188c.386-.022.78-.014 1.183.035.403.043.806.13 1.21.253.1.03.197.062.302.097.101.035.201.074.302.113.206.079.412.166.614.263.815.376 1.625.875 2.458 1.43.42.28.841.573 1.279.866.438.298.89.604 1.367.893a28.53 28.53 0 0 0 2.975 1.622c1.039.5 2.125.928 3.243 1.308.14.044.28.092.42.14l.211.07.214.062c.285.087.57.17.855.253.582.149 1.165.306 1.757.425 1.183.253 2.388.455 3.615.568a34.85 34.85 0 0 0 3.715.162 33 33 0 0 0 3.76-.271l.473-.061.232-.03.237-.04c.311-.057.622-.11.937-.162.311-.066.618-.127.934-.193.311-.065.617-.144.928-.218a32.307 32.307 0 0 0 3.646-1.15 30.605 30.605 0 0 0 3.483-1.606c.285-.153.566-.302.837-.468l.412-.245c.14-.083.276-.162.412-.25l.175-.118.044-.03.088-.057c.022.013.039.052.057.079l.035.048.048.07c.026.035.052.065.074.1a10.301 10.301 0 0 0 2.892 2.651 12.793 12.793 0 0 0 3.545 1.496c1.235.32 2.497.46 3.746.446a13.816 13.816 0 0 0 1.862-.144c.303-.048.609-.087.907-.153l.447-.092c.154-.03.298-.074.447-.11 2.362-.59 4.518-1.613 6.476-2.773 1.963-1.168 3.733-2.476 5.403-3.761.398-.311.793-.617 1.183-.92.394-.196.81-.388 1.253-.559.613-.24 1.271-.438 1.976-.573a9.295 9.295 0 0 1 2.195-.158c.749.049 1.512.189 2.23.486.057.022.11.048.167.07-.246.14-.482.302-.71.486a4.192 4.192 0 0 0-.955 1.11 3.463 3.463 0 0 0-.482 1.492c-.026.271-.005.538.039.8.049.263.114.521.224.766.101.25.241.481.399.7l.127.162.065.079.075.074.149.144.162.136c.438.359 1.03.569 1.617.569.039 0 .074 0 .114-.005l.105-.008c.074-.01.149-.013.223-.027l.211-.052c.035-.009.07-.013.105-.026l.1-.035.202-.08c.061-.03.123-.06.184-.095.132-.062.241-.145.355-.224.057-.034.105-.082.158-.126.052-.044.105-.088.153-.131l.14-.15.07-.07.066-.078.123-.158c.039-.052.07-.109.109-.161.035-.057.075-.114.105-.17l.092-.176c.237-.468.369-.997.351-1.54 0-.07 0-.135-.009-.2l-.022-.193c-.017-.132-.052-.254-.079-.377a3.594 3.594 0 0 0-.113-.367c-.049-.114-.088-.236-.149-.346a4.527 4.527 0 0 0-.605-.931 7.4 7.4 0 0 1 1.214.065c.617.083 1.2.219 1.748.363.552.145 1.056.298 1.52.455.469.158.894.32 1.293.477 1.573.634 2.598 1.194 3.304 1.562.354.188.631.328.845.433.219.1.377.166.5.197.236.065.32.004.385-.079.062-.079.097-.175-.044-.39a2.22 2.22 0 0 0-.359-.415Z"/></svg>