<?xml version="1.0" encoding="UTF-8"?> <svg xmlns="http://www.w3.org/2000/svg" width="400" height="36" viewBox="0 0 400 36" fill="none"> <path d="M190.85 20.3103L195.47 24.9303L190.85 29.5503L181.6 20.3103L190.85 11.0703L200.09 20.3103L209.33 11.0703L218.58 20.3103L209.33 29.5503L204.71 24.9303L209.33 20.3103" stroke="#E07771" stroke-width="1.5" stroke-miterlimit="10"></path> <path d="M204.711 34.1698L200.091 29.5498L195.471 34.1698" stroke="#E07771" stroke-width="1.5" stroke-miterlimit="10"></path> <path d="M200.095 1.82178L195.471 6.44625L200.095 11.0708L204.72 6.44625L200.095 1.82178Z" stroke="#E07771" stroke-width="1.5" stroke-miterlimit="10"></path> <path d="M200.09 11.0703V29.5503" stroke="#E07771" stroke-width="1.5" stroke-miterlimit="10"></path> <path d="M394.181 26.6903L399.781 21.0803C399.906 20.9438 399.975 20.7654 399.975 20.5803C399.975 20.3952 399.906 20.2168 399.781 20.0803L394.181 14.4703C394.04 14.3299 393.849 14.251 393.651 14.251C393.452 14.251 393.261 14.3299 393.121 14.4703L387.521 20.0003C387.396 20.1368 387.326 20.3152 387.326 20.5003C387.326 20.6854 387.396 20.8638 387.521 21.0003L393.121 26.6103C393.261 26.7508 393.452 26.8297 393.651 26.8297C393.849 26.8297 394.04 26.7508 394.181 26.6103" fill="#E07771"></path> <path d="M393.65 19.75H218.25V21.36H393.65V19.75Z" fill="#E07771"></path> <path d="M5.81934 14.6998L0.21934 20.2998C0.0788896 20.4405 0 20.6311 0 20.8298C0 21.0286 0.0788896 21.2192 0.21934 21.3598L5.81934 26.9998C5.88829 27.0706 5.9707 27.1268 6.06173 27.1652C6.15275 27.2036 6.25055 27.2234 6.34934 27.2234C6.44813 27.2234 6.54593 27.2036 6.63695 27.1652C6.72798 27.1268 6.81039 27.0706 6.87934 26.9998L12.4793 21.3998C12.6198 21.2592 12.6987 21.0686 12.6987 20.8698C12.6987 20.6711 12.6198 20.4805 12.4793 20.3398L6.87934 14.7398C6.73871 14.5994 6.54809 14.5205 6.34934 14.5205C6.15059 14.5205 5.95997 14.5994 5.81934 14.7398" fill="#E07771"></path> <path d="M181.75 20.0303H6.34961V21.6403H181.75V20.0303Z" fill="#E07771"></path> </svg> 