<?xml version="1.0" encoding="UTF-8"?> <svg xmlns="http://www.w3.org/2000/svg" width="250" height="4" viewBox="0 0 250 4" fill="none"> <g clip-path="url(#clip0_134_3655)"> <path d="M49.52 0.75C49.6439 0.673014 49.7411 0.559715 49.7984 0.425519C49.8557 0.291322 49.8702 0.142744 49.84 0C49.56 0.43 49.36 0.5 48.77 0.47C48.18 0.44 46.9 1.55 46.9 1.55C46.9 1.55 45.62 2.74 45 2.74C44.38 2.74 44.06 2.42 44.06 2.01C44.06 1.6 44.26 1.44 44.56 1.44C44.86 1.44 44.97 1.51 44.97 1.69C44.97 1.87 44.9 1.97 44.73 1.97C44.6806 1.97236 44.6314 1.96158 44.5875 1.93874C44.5435 1.9159 44.5065 1.88183 44.48 1.84C44.4687 1.90844 44.475 1.97862 44.4983 2.04398C44.5215 2.10933 44.5609 2.16772 44.6129 2.21368C44.6649 2.25964 44.7276 2.29166 44.7953 2.30676C44.863 2.32186 44.9334 2.31953 45 2.3C45.1406 2.30203 45.2773 2.25378 45.3855 2.16394C45.4937 2.0741 45.5662 1.94858 45.59 1.81C45.5961 1.71165 45.5805 1.61316 45.5442 1.52155C45.5079 1.42994 45.4518 1.34746 45.38 1.28C46.28 1.48 46.76 0.47 46.76 0.47C46.1 0.87 45.44 0.54 44.96 0.72C44.6742 0.830323 44.4176 1.00481 44.21 1.23C44.2468 1.04348 44.2296 0.850353 44.1605 0.67324C44.0915 0.496128 43.9733 0.342374 43.82 0.23C43.6667 0.342374 43.5485 0.496128 43.4795 0.67324C43.4104 0.850353 43.3932 1.04348 43.43 1.23C43.2224 1.00481 42.9658 0.830323 42.68 0.72C42.2 0.54 41.54 0.87 40.88 0.47C40.88 0.47 41.36 1.47 42.26 1.28C42.1882 1.34746 42.1321 1.42994 42.0958 1.52155C42.0595 1.61316 42.0439 1.71165 42.05 1.81C42.0738 1.94858 42.1464 2.0741 42.2545 2.16394C42.3627 2.25378 42.4994 2.30203 42.64 2.3C42.694 2.29382 42.7462 2.27697 42.7937 2.25042C42.8411 2.22387 42.8828 2.18815 42.9163 2.14534C42.9498 2.10254 42.9744 2.0535 42.9888 2.00108C43.0032 1.94866 43.007 1.8939 43 1.84C42.9719 1.88263 42.9331 1.9171 42.8875 1.93993C42.8418 1.96276 42.7909 1.97313 42.74 1.97C42.58 1.97 42.51 1.83 42.51 1.69C42.51 1.55 42.71 1.44 42.92 1.44C43.13 1.44 43.42 1.6 43.42 2.01C43.42 2.42 42.94 2.74 42.48 2.74C42.02 2.74 40.61 1.55 40.61 1.55C40.61 1.55 39.32 0.43 38.77 0.47C38.22 0.51 38 0.43 37.7 0C37.6649 0.14068 37.6749 0.288856 37.7288 0.423488C37.7826 0.55812 37.8775 0.672365 38 0.75C38 0.75 37.5 0.86 37.5 1.25C37.5 0.86 36.99 0.75 36.99 0.75C37.1198 0.678138 37.2229 0.566374 37.2841 0.43128C37.3454 0.296185 37.3615 0.144952 37.33 0C37.05 0.43 36.86 0.5 36.26 0.47C35.66 0.44 34.39 1.55 34.39 1.55C34.39 1.55 33.12 2.74 32.52 2.74C31.92 2.74 31.59 2.42 31.59 2.01C31.59 1.6 31.79 1.44 32.09 1.44C32.39 1.44 32.49 1.51 32.49 1.69C32.49 1.87 32.42 1.97 32.26 1.97C32.2091 1.97313 32.1582 1.96276 32.1125 1.93993C32.0669 1.9171 32.0281 1.88263 32 1.84C31.9942 1.90015 32.0014 1.96084 32.0211 2.01795C32.0409 2.07505 32.0728 2.12722 32.1145 2.17089C32.1563 2.21456 32.207 2.2487 32.2632 2.27098C32.3193 2.29326 32.3797 2.30316 32.44 2.3C32.576 2.29695 32.7066 2.24621 32.8089 2.15664C32.9113 2.06707 32.9789 1.94438 33 1.81C33.0067 1.71247 32.9923 1.61464 32.9578 1.52318C32.9233 1.43172 32.8695 1.34877 32.8 1.28C33.69 1.48 34.18 0.47 34.18 0.47C33.51 0.87 32.86 0.54 32.38 0.72C32.0907 0.828969 31.8305 1.00354 31.62 1.23C31.6568 1.04348 31.6396 0.850353 31.5705 0.67324C31.5015 0.496128 31.3833 0.342374 31.23 0.23C31.0785 0.343595 30.9623 0.497884 30.895 0.674915C30.8278 0.851946 30.8121 1.04444 30.85 1.23C30.6395 1.00354 30.3793 0.828969 30.09 0.72C29.64 0.54 29 0.87 28.32 0.47C28.32 0.47 28.81 1.47 29.7 1.28C29.6282 1.34746 29.5721 1.42994 29.5358 1.52155C29.4995 1.61316 29.4839 1.71165 29.49 1.81C29.5141 1.95032 29.588 2.07721 29.6983 2.16726C29.8086 2.25732 29.9477 2.30446 30.09 2.3C30.15 2.30339 30.21 2.29356 30.2657 2.27121C30.3215 2.24885 30.3716 2.21452 30.4127 2.17064C30.4537 2.12675 30.4846 2.07439 30.5031 2.01726C30.5217 1.96012 30.5274 1.89961 30.52 1.84C30.4943 1.88259 30.4574 1.91726 30.4133 1.9402C30.3692 1.96314 30.3196 1.97345 30.27 1.97C30.1 2 30 1.83 30 1.69C30 1.55 30.19 1.44 30.4 1.44C30.61 1.44 30.9 1.6 30.9 2.01C30.9 2.42 30.43 2.74 29.96 2.74C29.49 2.74 28.1 1.55 28.1 1.55C28.1 1.55 26.82 0.43 26.26 0.47C25.7 0.51 25.48 0.43 25.2 0C25.1667 0.142794 25.1798 0.292471 25.2374 0.427326C25.2949 0.562181 25.3939 0.675203 25.52 0.75C25.52 0.75 25.01 0.86 25.01 1.25C25.01 0.86 24.51 0.75 24.51 0.75C24.6332 0.672682 24.7292 0.558915 24.7848 0.424508C24.8403 0.2901 24.8526 0.141726 24.82 0C24.55 0.43 24.35 0.5 23.76 0.47C23.17 0.44 21.89 1.55 21.89 1.55C21.89 1.55 20.61 2.74 20 2.74C19.39 2.74 19.06 2.42 19.06 2.01C19.06 1.6 19.26 1.44 19.56 1.44C19.86 1.44 19.97 1.51 19.97 1.69C19.97 1.87 19.9 1.97 19.73 1.97C19.6806 1.97236 19.6314 1.96158 19.5875 1.93874C19.5435 1.9159 19.5065 1.88183 19.48 1.84C19.4726 1.89961 19.4783 1.96012 19.4969 2.01726C19.5154 2.07439 19.5463 2.12675 19.5873 2.17064C19.6284 2.21452 19.6785 2.24885 19.7343 2.27121C19.79 2.29356 19.85 2.30339 19.91 2.3C20.0523 2.30446 20.1914 2.25732 20.3017 2.16726C20.412 2.07721 20.4859 1.95032 20.51 1.81C20.5161 1.71165 20.5005 1.61316 20.4642 1.52155C20.4279 1.42994 20.3718 1.34746 20.3 1.28C21.2 1.48 21.68 0.47 21.68 0.47C21.02 0.87 20.36 0.54 19.88 0.72C19.5942 0.830323 19.3376 1.00481 19.13 1.23C19.1668 1.04348 19.1496 0.850353 19.0805 0.67324C19.0115 0.496128 18.8933 0.342374 18.74 0.23C18.5867 0.342374 18.4685 0.496128 18.3995 0.67324C18.3304 0.850353 18.3132 1.04348 18.35 1.23C18.1424 1.00481 17.8858 0.830323 17.6 0.72C17.12 0.54 16.46 0.87 15.8 0.47C15.8 0.47 16.28 1.47 17.18 1.28C17.1082 1.34746 17.0521 1.42994 17.0158 1.52155C16.9795 1.61316 16.9639 1.71165 16.97 1.81C16.9938 1.94858 17.0663 2.0741 17.1745 2.16394C17.2827 2.25378 17.4194 2.30203 17.56 2.3C17.6208 2.30494 17.6819 2.29626 17.7389 2.2746C17.7959 2.25293 17.8474 2.21882 17.8895 2.17475C17.9317 2.13068 17.9635 2.07777 17.9826 2.01986C18.0017 1.96195 18.0076 1.9005 18 1.84C17.9719 1.88263 17.9331 1.9171 17.8875 1.93993C17.8418 1.96276 17.7909 1.97313 17.74 1.97C17.58 1.97 17.51 1.83 17.51 1.69C17.51 1.55 17.71 1.44 17.92 1.44C18.13 1.44 18.42 1.6 18.42 2.01C18.42 2.42 17.94 2.74 17.48 2.74C17.02 2.74 15.61 1.55 15.61 1.55C15.61 1.55 14.31 0.43 13.76 0.47C13.21 0.51 13 0.43 12.69 0C12.6558 0.141732 12.6674 0.290652 12.7231 0.425393C12.7788 0.560135 12.8757 0.673772 13 0.75C13 0.75 12.5 0.86 12.5 1.25C12.5 0.86 11.99 0.75 11.99 0.75C12.1179 0.676658 12.219 0.564261 12.2784 0.429288C12.3378 0.294315 12.3524 0.143867 12.32 0C12.04 0.43 11.85 0.5 11.25 0.47C10.65 0.44 9.38 1.55 9.38 1.55C9.38 1.55 8.11 2.74 7.51 2.74C6.91 2.74 6.58 2.42 6.58 2C6.58 1.58 6.78 1.43 7.08 1.43C7.38 1.43 7.48 1.5 7.48 1.68C7.48 1.86 7.41 2 7.25 2C7.19778 1.99832 7.14698 1.98257 7.10298 1.95441C7.05897 1.92624 7.02339 1.88672 7 1.84C6.99236 1.9005 6.99832 1.96195 7.01743 2.01986C7.03655 2.07777 7.06834 2.13068 7.11049 2.17475C7.15264 2.21882 7.20409 2.25293 7.2611 2.2746C7.3181 2.29626 7.37922 2.30494 7.44 2.3C7.57598 2.29695 7.70657 2.24621 7.80894 2.15664C7.9113 2.06707 7.97893 1.94438 8 1.81C8.00672 1.71247 7.99233 1.61464 7.95782 1.52318C7.9233 1.43172 7.86947 1.34877 7.8 1.28C8.69 1.48 9.17 0.47 9.17 0.47C8.51 0.87 7.86 0.54 7.37 0.72C7.08424 0.830323 6.82765 1.00481 6.62 1.23C6.65677 1.04348 6.63961 0.850353 6.57054 0.67324C6.50146 0.496128 6.38334 0.342374 6.23 0.23C6.07847 0.343595 5.96231 0.497884 5.89504 0.674915C5.82777 0.851946 5.81215 1.04444 5.85 1.23C5.64221 1.00954 5.38999 0.835704 5.11 0.72C4.63 0.54 4 0.87 3.31 0.47C3.31 0.47 3.79 1.47 4.69 1.28C4.61818 1.34746 4.56212 1.42994 4.52582 1.52155C4.48952 1.61316 4.47388 1.71165 4.48 1.81C4.50406 1.95032 4.57805 2.07721 4.68832 2.16726C4.79859 2.25732 4.9377 2.30446 5.08 2.3C5.13997 2.30339 5.19996 2.29356 5.25572 2.27121C5.31147 2.24885 5.36164 2.21452 5.40266 2.17064C5.44368 2.12675 5.47456 2.07439 5.4931 2.01726C5.51165 1.96012 5.51742 1.89961 5.51 1.84C5.48851 1.88817 5.45339 1.929 5.40896 1.95743C5.36453 1.98587 5.31274 2.00067 5.26 2C5.09 2 5 1.83 5 1.69C5 1.55 5.19 1.44 5.4 1.44C5.61 1.44 5.9 1.6 5.9 2.01C5.9 2.42 5.43 2.74 4.96 2.74C4.49 2.74 3.13 1.55 3.13 1.55C3.13 1.55 1.81 0.43 1.25 0.47C0.69 0.51 0.47 0.43 0.19 0C0.157357 0.141726 0.169668 0.2901 0.225223 0.424508C0.280778 0.558915 0.376818 0.672682 0.5 0.75C0.5 0.75 0 0.86 0 1.25V3.36C0.153336 3.24763 0.271464 3.09387 0.340537 2.91676C0.409611 2.73965 0.426769 2.54652 0.39 2.36C0.597646 2.58519 0.854244 2.75968 1.14 2.87C1.62 3.05 2.28 2.71 2.94 3.12C2.94 3.12 2.46 2.12 1.56 2.31C1.63074 2.24172 1.68608 2.15911 1.7223 2.0677C1.75851 1.9763 1.77478 1.8782 1.77 1.78C1.74641 1.64046 1.67427 1.51375 1.5663 1.42226C1.45834 1.33077 1.32152 1.28038 1.18 1.28C1.11872 1.27663 1.05744 1.28673 1.00048 1.30959C0.943527 1.33246 0.892273 1.36752 0.850328 1.41233C0.808383 1.45713 0.776767 1.51059 0.757706 1.56893C0.738645 1.62726 0.732601 1.68907 0.74 1.75C0.766827 1.70552 0.805109 1.66906 0.850846 1.64443C0.896583 1.6198 0.948096 1.60791 1 1.61C1.16 1.61 1.23 1.74 1.23 1.89C1.23 2.04 1.03 2.13 0.82 2.13C0.61 2.13 0.32 2 0.32 1.57C0.32 1.14 0.8 0.84 1.26 0.84C1.72 0.84 3.13 2 3.13 2C3.13 2 4.45 3.15 5 3.11C5.55 3.07 5.79 3.11 6.07 3.58C6.10326 3.43721 6.09018 3.28753 6.03264 3.15267C5.9751 3.01782 5.8761 2.9048 5.75 2.83C5.75 2.83 6.25 2.72 6.25 2.33C6.25 2.72 6.76 2.83 6.76 2.83C6.6339 2.9048 6.5349 3.01782 6.47736 3.15267C6.41982 3.28753 6.40674 3.43721 6.44 3.58C6.72 3.15 6.91 3.08 7.51 3.11C8.11 3.14 9.38 2 9.38 2C9.38 2 10.65 0.84 11.25 0.84C11.85 0.84 12.18 1.16 12.18 1.57C12.18 1.98 11.98 2.13 11.68 2.13C11.38 2.13 11.28 2.07 11.28 1.89C11.28 1.71 11.35 1.61 11.51 1.61C11.5609 1.60687 11.6118 1.61725 11.6575 1.64007C11.7031 1.6629 11.7419 1.69737 11.77 1.74C11.7774 1.67907 11.7714 1.61726 11.7523 1.55893C11.7332 1.50059 11.7016 1.44713 11.6597 1.40233C11.6177 1.35752 11.5665 1.32246 11.5095 1.29959C11.4526 1.27673 11.3913 1.26663 11.33 1.27C11.1879 1.26834 11.05 1.318 10.9417 1.40985C10.8333 1.50171 10.7617 1.62959 10.74 1.77C10.7352 1.86734 10.7504 1.96463 10.7849 2.05581C10.8193 2.14699 10.8721 2.23011 10.94 2.3C10.05 2.1 9.57 3.11 9.57 3.11C10.23 2.7 10.88 3.04 11.37 2.86C11.6558 2.74968 11.9124 2.57519 12.12 2.35C12.0832 2.53652 12.1004 2.72965 12.1695 2.90676C12.2385 3.08387 12.3567 3.23763 12.51 3.35C12.6615 3.2364 12.7777 3.08212 12.845 2.90509C12.9122 2.72805 12.9279 2.53556 12.89 2.35C13.1036 2.57282 13.3629 2.7468 13.65 2.86C14.13 3.04 14.78 2.7 15.45 3.11C15.45 3.11 14.97 2.11 14.07 2.3C14.1407 2.23172 14.1961 2.14911 14.2323 2.0577C14.2685 1.9663 14.2848 1.8682 14.28 1.77C14.2561 1.62876 14.1825 1.50071 14.0725 1.40901C13.9624 1.31731 13.8232 1.268 13.68 1.27C13.6195 1.26813 13.5594 1.27933 13.5037 1.30286C13.4479 1.32638 13.3979 1.36166 13.3571 1.40629C13.3163 1.45092 13.2856 1.50384 13.2671 1.56144C13.2486 1.61904 13.2428 1.67994 13.25 1.74C13.2757 1.69741 13.3126 1.66274 13.3567 1.6398C13.4008 1.61686 13.4504 1.60655 13.5 1.61C13.67 1.61 13.73 1.74 13.73 1.89C13.73 2.04 13.54 2.13 13.33 2.13C13.12 2.13 12.83 1.98 12.83 1.57C12.83 1.16 13.3 0.84 13.77 0.84C14.24 0.84 15.63 2 15.63 2C15.63 2 17 3.15 17.51 3.11C18.02 3.07 18.29 3.11 18.57 3.58C18.6026 3.43827 18.5903 3.2899 18.5348 3.15549C18.4792 3.02108 18.3832 2.90732 18.26 2.83C18.26 2.83 18.76 2.72 18.76 2.33C18.76 2.72 19.26 2.83 19.26 2.83C19.1368 2.90732 19.0408 3.02108 18.9852 3.15549C18.9297 3.2899 18.9174 3.43827 18.95 3.58C19.22 3.15 19.42 3.08 20.01 3.11C20.6 3.14 21.89 2 21.89 2C21.89 2 23.16 0.84 23.75 0.84C24.34 0.84 24.69 1.16 24.69 1.57C24.69 1.98 24.49 2.13 24.19 2.13C23.89 2.13 23.78 2.07 23.78 1.89C23.78 1.71 23.85 1.61 24.02 1.61C24.0694 1.60764 24.1186 1.61842 24.1625 1.64126C24.2065 1.6641 24.2435 1.69817 24.27 1.74C24.2772 1.67994 24.2714 1.61904 24.2529 1.56144C24.2344 1.50384 24.2037 1.45092 24.1629 1.40629C24.1221 1.36166 24.0721 1.32638 24.0163 1.30286C23.9606 1.27933 23.9005 1.26813 23.84 1.27C23.6968 1.268 23.5576 1.31731 23.4475 1.40901C23.3375 1.50071 23.2639 1.62876 23.24 1.77C23.2352 1.8682 23.2515 1.9663 23.2877 2.0577C23.3239 2.14911 23.3793 2.23172 23.45 2.3C22.55 2.1 22.07 3.11 22.07 3.11C22.73 2.7 23.39 3.04 23.87 2.86C24.1558 2.74968 24.4124 2.57519 24.62 2.35C24.5832 2.53652 24.6004 2.72965 24.6695 2.90676C24.7385 3.08387 24.8567 3.23763 25.01 3.35C25.1633 3.23763 25.2815 3.08387 25.3505 2.90676C25.4196 2.72965 25.4368 2.53652 25.4 2.35C25.6076 2.57519 25.8642 2.74968 26.15 2.86C26.64 3.04 27.29 2.7 27.95 3.11C27.95 3.11 27.47 2.11 26.57 2.3C26.6407 2.23172 26.6961 2.14911 26.7323 2.0577C26.7685 1.9663 26.7848 1.8682 26.78 1.77C26.7564 1.63046 26.6843 1.50375 26.5763 1.41226C26.4683 1.32077 26.3315 1.27038 26.19 1.27C26.1287 1.26663 26.0674 1.27673 26.0105 1.29959C25.9535 1.32246 25.9023 1.35752 25.8603 1.40233C25.8184 1.44713 25.7868 1.50059 25.7677 1.55893C25.7486 1.61726 25.7426 1.67907 25.75 1.74C25.7772 1.69887 25.8144 1.66534 25.8581 1.6426C25.9019 1.61985 25.9507 1.60863 26 1.61C26.16 1.61 26.23 1.74 26.23 1.89C26.23 2.04 26.03 2.13 25.83 2.13C25.63 2.13 25.32 1.98 25.32 1.57C25.32 1.16 25.8 0.84 26.26 0.84C26.72 0.84 28.14 2 28.14 2C28.14 2 29.46 3.15 30 3.11C30.54 3.07 30.79 3.11 31.07 3.58C31.1033 3.43721 31.0902 3.28753 31.0326 3.15267C30.9751 3.01782 30.8761 2.9048 30.75 2.83C30.75 2.83 31.25 2.72 31.25 2.33C31.25 2.72 31.76 2.83 31.76 2.83C31.6339 2.9048 31.5349 3.01782 31.4774 3.15267C31.4198 3.28753 31.4067 3.43721 31.44 3.58C31.72 3.15 31.91 3.08 32.51 3.11C33.11 3.14 34.39 2 34.39 2C34.39 2 35.67 0.84 36.26 0.84C36.85 0.84 37.19 1.16 37.19 1.57C37.19 1.98 36.99 2.13 36.69 2.13C36.39 2.13 36.29 2.07 36.29 1.89C36.29 1.71 36.36 1.61 36.52 1.61C36.5709 1.60687 36.6218 1.61725 36.6675 1.64007C36.7131 1.6629 36.7519 1.69737 36.78 1.74C36.7874 1.67907 36.7814 1.61726 36.7623 1.55893C36.7432 1.50059 36.7116 1.44713 36.6697 1.40233C36.6277 1.35752 36.5765 1.32246 36.5195 1.29959C36.4626 1.27673 36.4013 1.26663 36.34 1.27C36.1979 1.26834 36.06 1.318 35.9517 1.40985C35.8433 1.50171 35.7717 1.62959 35.75 1.77C35.7452 1.86734 35.7604 1.96463 35.7949 2.05581C35.8293 2.14699 35.8821 2.23011 35.95 2.3C35.06 2.1 34.58 3.11 34.58 3.11C35.24 2.7 35.89 3.04 36.38 2.86C36.6658 2.74968 36.9224 2.57519 37.13 2.35C37.0932 2.53652 37.1104 2.72965 37.1795 2.90676C37.2485 3.08387 37.3667 3.23763 37.52 3.35C37.6715 3.2364 37.7877 3.08212 37.855 2.90509C37.9222 2.72805 37.9379 2.53556 37.9 2.35C38.1136 2.57282 38.3729 2.7468 38.66 2.86C39.14 3.04 39.8 2.7 40.46 3.11C40.46 3.11 39.98 2.11 39.08 2.3C39.1507 2.23172 39.2061 2.14911 39.2423 2.0577C39.2785 1.9663 39.2948 1.8682 39.29 1.77C39.2661 1.62876 39.1925 1.50071 39.0825 1.40901C38.9724 1.31731 38.8332 1.268 38.69 1.27C38.6295 1.26813 38.5694 1.27933 38.5137 1.30286C38.4579 1.32638 38.4079 1.36166 38.3671 1.40629C38.3263 1.45092 38.2956 1.50384 38.2771 1.56144C38.2586 1.61904 38.2528 1.67994 38.26 1.74C38.2857 1.69741 38.3226 1.66274 38.3667 1.6398C38.4108 1.61686 38.4604 1.60655 38.51 1.61C38.68 1.61 38.74 1.74 38.74 1.89C38.74 2.04 38.55 2.13 38.34 2.13C38.13 2.13 37.84 1.98 37.84 1.57C37.84 1.16 38.31 0.84 38.78 0.84C39.25 0.84 40.64 2 40.64 2C40.64 2 42 3.15 42.52 3.11C43.04 3.07 43.3 3.11 43.58 3.58C43.6126 3.43827 43.6003 3.2899 43.5448 3.15549C43.4892 3.02108 43.3932 2.90732 43.27 2.83C43.27 2.83 43.77 2.72 43.77 2.33C43.77 2.72 44.27 2.83 44.27 2.83C44.1468 2.90732 44.0508 3.02108 43.9952 3.15549C43.9397 3.2899 43.9274 3.43827 43.96 3.58C44.23 3.15 44.43 3.08 45.02 3.11C45.61 3.14 46.9 2 46.9 2C46.9 2 48.17 0.84 48.76 0.84C49.35 0.84 49.7 1.16 49.7 1.57C49.7 1.98 49.5 2.13 49.2 2.13C48.9 2.13 48.8 2.07 48.8 1.89C48.8 1.71 48.86 1.61 49.03 1.61C49.0794 1.60764 49.1286 1.61842 49.1725 1.64126C49.2165 1.6641 49.2535 1.69817 49.28 1.74C49.2872 1.67994 49.2814 1.61904 49.2629 1.56144C49.2444 1.50384 49.2137 1.45092 49.1729 1.40629C49.1321 1.36166 49.0821 1.32638 49.0263 1.30286C48.9706 1.27933 48.9105 1.26813 48.85 1.27C48.7068 1.268 48.5676 1.31731 48.4575 1.40901C48.3475 1.50071 48.2739 1.62876 48.25 1.77C48.2452 1.8682 48.2615 1.9663 48.2977 2.0577C48.3339 2.14911 48.3893 2.23172 48.46 2.3C47.56 2.1 47.08 3.11 47.08 3.11C47.74 2.7 48.4 3.04 48.88 2.86C49.1658 2.74968 49.4224 2.57519 49.63 2.35C49.5932 2.53652 49.6104 2.72965 49.6795 2.90676C49.7485 3.08387 49.8667 3.23763 50.02 3.35V1.25C50 0.86 49.52 0.75 49.52 0.75Z" fill="#E07771"></path> <path d="M99.5395 0.75C99.6656 0.675203 99.7646 0.562181 99.8222 0.427326C99.8797 0.292471 99.8928 0.142794 99.8595 0C99.5795 0.43 99.3895 0.5 98.7895 0.47C98.1895 0.44 96.9195 1.55 96.9195 1.55C96.9195 1.55 95.6395 2.74 95.0495 2.74C94.4595 2.74 94.1095 2.42 94.1095 2.01C94.1095 1.6 94.3095 1.44 94.6095 1.44C94.9095 1.44 95.0195 1.51 95.0195 1.69C95.0195 1.87 94.9995 2 94.7895 2C94.7386 2.00313 94.6877 1.99276 94.6421 1.96993C94.5964 1.9471 94.5576 1.91263 94.5295 1.87C94.5259 1.93094 94.5359 1.99192 94.5588 2.0485C94.5817 2.10507 94.617 2.15582 94.662 2.19702C94.7071 2.23823 94.7608 2.26886 94.8191 2.28667C94.8775 2.30449 94.9392 2.30904 94.9995 2.3C95.1401 2.30203 95.2768 2.25378 95.385 2.16394C95.4932 2.0741 95.5657 1.94858 95.5895 1.81C95.5957 1.71165 95.58 1.61316 95.5437 1.52155C95.5074 1.42994 95.4514 1.34746 95.3795 1.28C96.2795 1.48 96.7595 0.47 96.7595 0.47C96.0995 0.87 95.4395 0.54 94.9595 0.72C94.6738 0.830323 94.4172 1.00481 94.2095 1.23C94.2463 1.04348 94.2291 0.850353 94.1601 0.67324C94.091 0.496128 93.9729 0.342374 93.8195 0.23C93.6662 0.342374 93.5481 0.496128 93.479 0.67324C93.4099 0.850353 93.3928 1.04348 93.4295 1.23C93.2219 1.00481 92.9653 0.830323 92.6795 0.72C92.1995 0.54 91.5395 0.87 90.8795 0.47C90.8795 0.47 91.3595 1.47 92.2595 1.28C92.1877 1.34746 92.1316 1.42994 92.0953 1.52155C92.059 1.61316 92.0434 1.71165 92.0495 1.81C92.0736 1.95032 92.1476 2.07721 92.2578 2.16726C92.3681 2.25732 92.5072 2.30446 92.6495 2.3C92.7095 2.30339 92.7695 2.29356 92.8252 2.27121C92.881 2.24885 92.9312 2.21452 92.9722 2.17064C93.0132 2.12675 93.0441 2.07439 93.0626 2.01726C93.0812 1.96012 93.087 1.89961 93.0795 1.84C93.055 1.89228 93.015 1.93572 92.9649 1.96436C92.9148 1.993 92.857 2.00545 92.7995 2C92.6295 2 92.5595 1.86 92.5595 1.72C92.5595 1.58 92.7595 1.47 92.9695 1.47C93.1795 1.47 93.4695 1.63 93.4695 2.04C93.4695 2.45 92.9895 2.77 92.5295 2.77C92.0695 2.77 90.6595 1.58 90.6595 1.58C90.6595 1.58 89.3495 0.43 88.7895 0.47C88.2295 0.51 87.9995 0.43 87.7295 0C87.6929 0.137636 87.6991 0.283175 87.7473 0.417185C87.7956 0.551196 87.8836 0.667301 87.9995 0.75C87.9995 0.75 87.4995 0.86 87.4995 1.25C87.4995 0.86 86.9895 0.75 86.9895 0.75C87.123 0.681175 87.2303 0.570707 87.2953 0.435356C87.3602 0.300005 87.3793 0.147157 87.3495 0C87.0695 0.43 86.8795 0.5 86.2895 0.47C85.6995 0.44 84.4095 1.55 84.4095 1.55C84.4095 1.55 83.1395 2.74 82.5495 2.74C81.9595 2.74 81.6095 2.42 81.6095 2.01C81.6095 1.6 81.8095 1.44 82.1095 1.44C82.4095 1.44 82.5095 1.51 82.5095 1.69C82.5095 1.87 82.4495 1.97 82.2795 1.97C82.2252 1.97955 82.1692 1.97221 82.1191 1.94896C82.0691 1.92572 82.0273 1.88769 81.9995 1.84C81.9921 1.89961 81.9979 1.96012 82.0164 2.01726C82.035 2.07439 82.0659 2.12675 82.1069 2.17064C82.1479 2.21452 82.1981 2.24885 82.2538 2.27121C82.3096 2.29356 82.3696 2.30339 82.4295 2.3C82.5718 2.30446 82.7109 2.25732 82.8212 2.16726C82.9315 2.07721 83.0055 1.95032 83.0295 1.81C83.0357 1.71165 83.02 1.61316 82.9837 1.52155C82.9474 1.42994 82.8914 1.34746 82.8195 1.28C83.7095 1.48 84.1995 0.47 84.1995 0.47C83.5295 0.87 82.8795 0.54 82.3995 0.72C82.1102 0.828969 81.85 1.00354 81.6395 1.23C81.6774 1.04444 81.6618 0.851946 81.5945 0.674915C81.5272 0.497884 81.4111 0.343595 81.2595 0.23C81.1062 0.342374 80.9881 0.496128 80.919 0.67324C80.8499 0.850353 80.8328 1.04348 80.8695 1.23C80.659 1.00354 80.3989 0.828969 80.1095 0.72C79.6595 0.54 78.9995 0.87 78.3395 0.47C78.3395 0.47 78.8295 1.47 79.7195 1.28C79.6501 1.34877 79.5962 1.43172 79.5617 1.52318C79.5272 1.61464 79.5128 1.71247 79.5195 1.81C79.5414 1.94949 79.6134 2.07623 79.722 2.16644C79.8306 2.25665 79.9684 2.30414 80.1095 2.3C80.1703 2.30494 80.2314 2.29626 80.2884 2.2746C80.3454 2.25293 80.3969 2.21882 80.439 2.17475C80.4812 2.13068 80.513 2.07777 80.5321 2.01986C80.5512 1.96195 80.5572 1.9005 80.5495 1.84C80.5215 1.88263 80.4826 1.9171 80.437 1.93993C80.3913 1.96276 80.3405 1.97313 80.2895 1.97C80.1295 1.97 80.0595 1.83 80.0595 1.69C80.0595 1.55 80.2595 1.44 80.4595 1.44C80.6595 1.44 80.9595 1.6 80.9595 2.01C80.9595 2.42 80.4895 2.74 80.0295 2.74C79.5695 2.74 78.1595 1.55 78.1595 1.55C78.1595 1.55 76.8395 0.43 76.2895 0.47C75.7395 0.51 75.4995 0.43 75.2195 0C75.1863 0.142794 75.1994 0.292471 75.2569 0.427326C75.3144 0.562181 75.4134 0.675203 75.5395 0.75C75.5395 0.75 75.0295 0.86 75.0295 1.25C75.0295 0.86 74.5295 0.75 74.5295 0.75C74.6556 0.675203 74.7546 0.562181 74.8122 0.427326C74.8697 0.292471 74.8828 0.142794 74.8495 0C74.5695 0.43 74.3695 0.5 73.7795 0.47C73.1895 0.44 71.9095 1.55 71.9095 1.55C71.9095 1.55 70.6295 2.74 69.9995 2.74C69.3695 2.74 69.0995 2.42 69.0995 2C69.0995 1.58 69.2995 1.43 69.5995 1.43C69.8995 1.43 70.0095 1.5 70.0095 1.68C70.0095 1.86 69.9395 1.96 69.7795 1.96C69.7286 1.96313 69.6777 1.95276 69.6321 1.92993C69.5864 1.9071 69.5476 1.87263 69.5195 1.83C69.5088 1.89504 69.5138 1.96171 69.5343 2.02438C69.5548 2.08704 69.5901 2.14384 69.6372 2.18996C69.6843 2.23609 69.7418 2.27017 69.8049 2.28932C69.868 2.30848 69.9347 2.31214 69.9995 2.3C70.1401 2.30203 70.2768 2.25378 70.385 2.16394C70.4932 2.0741 70.5657 1.94858 70.5895 1.81C70.5957 1.71165 70.58 1.61316 70.5437 1.52155C70.5074 1.42994 70.4514 1.34746 70.3795 1.28C71.2795 1.48 71.7595 0.47 71.7595 0.47C71.0995 0.87 70.4395 0.54 69.9595 0.72C69.6738 0.830323 69.4172 1.00481 69.2095 1.23C69.2463 1.04348 69.2291 0.850353 69.1601 0.67324C69.091 0.496128 68.9729 0.342374 68.8195 0.23C68.6662 0.342374 68.5481 0.496128 68.479 0.67324C68.4099 0.850353 68.3928 1.04348 68.4295 1.23C68.2219 1.00481 67.9653 0.830323 67.6795 0.72C67.1995 0.54 66.5395 0.87 65.8795 0.47C65.8795 0.47 66.3595 1.47 67.2595 1.28C67.1877 1.34746 67.1316 1.42994 67.0953 1.52155C67.059 1.61316 67.0434 1.71165 67.0495 1.81C67.0734 1.94858 67.1459 2.0741 67.2541 2.16394C67.3622 2.25378 67.4989 2.30203 67.6395 2.3C67.6935 2.29382 67.7458 2.27697 67.7932 2.25042C67.8406 2.22387 67.8823 2.18815 67.9158 2.14534C67.9493 2.10254 67.974 2.0535 67.9883 2.00108C68.0027 1.94866 68.0065 1.8939 67.9995 1.84C67.9731 1.88183 67.936 1.9159 67.8921 1.93874C67.8482 1.96158 67.799 1.97236 67.7495 1.97C67.5795 1.97 67.5095 1.83 67.5095 1.69C67.5095 1.55 67.7095 1.44 67.9195 1.44C68.1295 1.44 68.4195 1.6 68.4195 2.01C68.4195 2.42 67.9395 2.74 67.4795 2.74C67.0195 2.74 65.6095 1.55 65.6095 1.55C65.6095 1.55 64.3395 0.43 63.7795 0.47C63.2195 0.51 62.9995 0.43 62.7195 0C62.6839 0.138644 62.6917 0.284874 62.7417 0.418978C62.7918 0.553082 62.8818 0.668614 62.9995 0.75C62.9995 0.75 62.4995 0.86 62.4995 1.25C62.4995 0.86 61.9895 0.75 61.9895 0.75C62.1211 0.679643 62.2264 0.568523 62.2895 0.433302C62.3526 0.298082 62.3701 0.146048 62.3395 0C62.0595 0.43 61.8695 0.5 61.2695 0.47C60.6695 0.44 59.3995 1.55 59.3995 1.55C59.3995 1.55 58.1295 2.74 57.5295 2.74C56.9295 2.74 56.5995 2.42 56.5995 2C56.5995 1.58 56.7995 1.43 57.0995 1.43C57.3995 1.43 57.4995 1.5 57.4995 1.68C57.4995 1.86 57.4295 1.96 57.2695 1.96C57.2179 1.96603 57.1656 1.95807 57.1181 1.93696C57.0706 1.91585 57.0297 1.88236 56.9995 1.84C56.9937 1.90015 57.0009 1.96084 57.0207 2.01795C57.0404 2.07505 57.0723 2.12722 57.1141 2.17089C57.1558 2.21456 57.2065 2.2487 57.2627 2.27098C57.3189 2.29326 57.3792 2.30316 57.4395 2.3C57.5755 2.29695 57.7061 2.24621 57.8085 2.15664C57.9108 2.06707 57.9785 1.94438 57.9995 1.81C58.0063 1.71247 57.9919 1.61464 57.9573 1.52318C57.9228 1.43172 57.869 1.34877 57.7995 1.28C58.6895 1.48 59.1795 0.47 59.1795 0.47C58.5095 0.87 57.8595 0.54 57.3795 0.72C57.0902 0.828969 56.83 1.00354 56.6195 1.23C56.6574 1.04444 56.6418 0.851946 56.5745 0.674915C56.5072 0.497884 56.3911 0.343595 56.2395 0.23C56.0862 0.342374 55.9681 0.496128 55.899 0.67324C55.8299 0.850353 55.8128 1.04348 55.8495 1.23C55.639 1.00354 55.3789 0.828969 55.0895 0.72C54.6495 0.54 53.9995 0.87 53.3295 0.47C53.3295 0.47 53.8195 1.47 54.7095 1.28C54.6401 1.34877 54.5862 1.43172 54.5517 1.52318C54.5172 1.61464 54.5028 1.71247 54.5095 1.81C54.5314 1.94949 54.6034 2.07623 54.712 2.16644C54.8206 2.25665 54.9584 2.30414 55.0995 2.3C55.1599 2.30316 55.2202 2.29326 55.2764 2.27098C55.3325 2.2487 55.3832 2.21456 55.425 2.17089C55.4668 2.12722 55.4986 2.07505 55.5184 2.01795C55.5382 1.96084 55.5454 1.90015 55.5395 1.84C55.5115 1.88263 55.4726 1.9171 55.427 1.93993C55.3813 1.96276 55.3305 1.97313 55.2795 1.97C55.1195 1.97 55.0495 1.83 55.0495 1.69C55.0495 1.55 55.2395 1.44 55.4495 1.44C55.6595 1.44 55.9495 1.6 55.9495 2.01C55.9495 2.42 55.4795 2.74 55.0195 2.74C54.5595 2.74 53.1495 1.55 53.1495 1.55C53.1495 1.55 51.8295 0.43 51.2795 0.47C50.7295 0.51 50.4895 0.47 50.2095 0C50.1763 0.142794 50.1894 0.292471 50.2469 0.427326C50.3044 0.562181 50.4034 0.675203 50.5295 0.75C50.5295 0.75 50.0195 0.86 50.0195 1.25V3.36C50.1729 3.24763 50.291 3.09387 50.3601 2.91676C50.4291 2.73965 50.4463 2.54652 50.4095 2.36C50.6172 2.58519 50.8738 2.75968 51.1595 2.87C51.6495 3.05 52.2995 2.71 52.9595 3.12C52.9595 3.12 52.4795 2.12 51.5895 2.31C51.6575 2.24011 51.7103 2.15699 51.7447 2.06581C51.7791 1.97463 51.7944 1.87734 51.7895 1.78C51.7679 1.63959 51.6963 1.51171 51.5879 1.41985C51.4795 1.328 51.3416 1.27834 51.1995 1.28C51.1382 1.27663 51.077 1.28673 51.02 1.30959C50.9631 1.33246 50.9118 1.36752 50.8699 1.41233C50.8279 1.45713 50.7963 1.51059 50.7772 1.56893C50.7582 1.62726 50.7521 1.68907 50.7595 1.75C50.7846 1.70844 50.8197 1.67385 50.8617 1.64939C50.9036 1.62493 50.951 1.61138 50.9995 1.61C51.1595 1.61 51.2295 1.74 51.2295 1.89C51.2295 2.04 51.0295 2.13 50.8295 2.13C50.6295 2.13 50.3295 1.98 50.3295 1.57C50.3295 1.16 50.7995 0.84 51.2595 0.84C51.7195 0.84 53.1495 2 53.1495 2C53.1495 2 54.4695 3.15 54.9995 3.11C55.5295 3.07 55.7895 3.11 56.0695 3.58C56.1028 3.43721 56.0897 3.28753 56.0322 3.15267C55.9746 3.01782 55.8756 2.9048 55.7495 2.83C55.7495 2.83 56.2595 2.72 56.2595 2.33C56.2595 2.72 56.7595 2.83 56.7595 2.83C56.6334 2.9048 56.5344 3.01782 56.4769 3.15267C56.4194 3.28753 56.4063 3.43721 56.4395 3.58C56.7195 3.15 56.9095 3.08 57.5095 3.11C58.1095 3.14 59.3995 2 59.3995 2C59.3995 2 60.6795 0.84 61.2695 0.84C61.8595 0.84 62.1995 1.16 62.1995 1.57C62.1995 1.98 61.9995 2.13 61.6995 2.13C61.3995 2.13 61.2995 2.07 61.2995 1.89C61.2995 1.71 61.3695 1.61 61.5295 1.61C61.5805 1.60687 61.6313 1.61725 61.677 1.64007C61.7226 1.6629 61.7615 1.69737 61.7895 1.74C61.7969 1.67907 61.7909 1.61726 61.7718 1.55893C61.7528 1.50059 61.7211 1.44713 61.6792 1.40233C61.6373 1.35752 61.586 1.32246 61.529 1.29959C61.4721 1.27673 61.4108 1.26663 61.3495 1.27C61.2075 1.26834 61.0696 1.318 60.9612 1.40985C60.8528 1.50171 60.7812 1.62959 60.7595 1.77C60.7547 1.86734 60.77 1.96463 60.8044 2.05581C60.8388 2.14699 60.8916 2.23011 60.9595 2.3C60.0695 2.1 59.5895 3.11 59.5895 3.11C60.2495 2.7 60.8995 3.04 61.3895 2.86C61.6753 2.74968 61.9319 2.57519 62.1395 2.35C62.1028 2.53652 62.1199 2.72965 62.189 2.90676C62.2581 3.08387 62.3762 3.23763 62.5295 3.35C62.6829 3.23763 62.801 3.08387 62.8701 2.90676C62.9391 2.72965 62.9563 2.53652 62.9195 2.35C63.1272 2.57519 63.3838 2.74968 63.6695 2.86C64.1495 3.04 64.8095 2.7 65.4695 3.11C65.4695 3.11 64.9895 2.11 64.0895 2.3C64.1603 2.23172 64.2156 2.14911 64.2518 2.0577C64.288 1.9663 64.3043 1.8682 64.2995 1.77C64.2757 1.62876 64.2021 1.50071 64.092 1.40901C63.982 1.31731 63.8428 1.268 63.6995 1.27C63.6391 1.26813 63.5789 1.27933 63.5232 1.30286C63.4675 1.32638 63.4175 1.36166 63.3766 1.40629C63.3358 1.45092 63.3051 1.50384 63.2866 1.56144C63.2681 1.61904 63.2623 1.67994 63.2695 1.74C63.296 1.69817 63.3331 1.6641 63.377 1.64126C63.4209 1.61842 63.4701 1.60764 63.5195 1.61C63.6895 1.61 63.7595 1.74 63.7595 1.89C63.7595 2.04 63.5595 2.13 63.3495 2.13C63.1395 2.13 62.8495 1.98 62.8495 1.57C62.8495 1.16 63.3195 0.84 63.7895 0.84C64.2595 0.84 65.6495 2 65.6495 2C65.6495 2 66.9995 3.15 67.5295 3.11C68.0595 3.07 68.3195 3.11 68.5895 3.58C68.6222 3.43827 68.6099 3.2899 68.5543 3.15549C68.4988 3.02108 68.4027 2.90732 68.2795 2.83C68.2795 2.83 68.7795 2.72 68.7795 2.33C68.7795 2.72 69.2795 2.83 69.2795 2.83C69.1563 2.90732 69.0603 3.02108 69.0048 3.15549C68.9492 3.2899 68.9369 3.43827 68.9695 3.58C69.2495 3.15 69.4395 3.08 70.0295 3.11C70.6195 3.14 71.9095 2 71.9095 2C71.9095 2 73.1795 0.84 73.7695 0.84C74.3595 0.84 74.7095 1.16 74.7095 1.57C74.7095 1.98 74.5095 2.13 74.2095 2.13C73.9095 2.13 73.8095 2.07 73.8095 1.89C73.8095 1.71 73.8695 1.61 74.0395 1.61C74.0891 1.60655 74.1387 1.61686 74.1828 1.6398C74.2269 1.66274 74.2639 1.69741 74.2895 1.74C74.2968 1.67994 74.2909 1.61904 74.2724 1.56144C74.254 1.50384 74.2233 1.45092 74.1824 1.40629C74.1416 1.36166 74.0916 1.32638 74.0359 1.30286C73.9801 1.27933 73.92 1.26813 73.8595 1.27C73.7163 1.268 73.5771 1.31731 73.467 1.40901C73.357 1.50071 73.2834 1.62876 73.2595 1.77C73.2548 1.8682 73.271 1.9663 73.3072 2.0577C73.3434 2.14911 73.3988 2.23172 73.4695 2.3C72.5695 2.1 72.0895 3.11 72.0895 3.11C72.7595 2.7 73.4095 3.04 73.8895 2.86C74.1767 2.7468 74.4359 2.57282 74.6495 2.35C74.6117 2.53556 74.6273 2.72805 74.6946 2.90509C74.7618 3.08212 74.878 3.2364 75.0295 3.35C75.1829 3.23763 75.301 3.08387 75.3701 2.90676C75.4391 2.72965 75.4563 2.53652 75.4195 2.35C75.6272 2.57519 75.8838 2.74968 76.1695 2.86C76.6595 3.04 77.3095 2.7 77.9695 3.11C77.9695 3.11 77.4895 2.11 76.5995 2.3C76.6675 2.23011 76.7203 2.14699 76.7547 2.05581C76.7891 1.96463 76.8044 1.86734 76.7995 1.77C76.7779 1.62959 76.7063 1.50171 76.5979 1.40985C76.4895 1.318 76.3516 1.26834 76.2095 1.27C76.1482 1.26663 76.087 1.27673 76.03 1.29959C75.9731 1.32246 75.9218 1.35752 75.8799 1.40233C75.8379 1.44713 75.8063 1.50059 75.7872 1.55893C75.7682 1.61726 75.7621 1.67907 75.7695 1.74C75.7948 1.70166 75.8289 1.66989 75.8689 1.64729C75.9089 1.62469 75.9536 1.61191 75.9995 1.61C76.1595 1.61 76.2295 1.74 76.2295 1.89C76.2295 2.04 76.0295 2.13 75.8295 2.13C75.6295 2.13 75.3295 1.98 75.3295 1.57C75.3295 1.16 75.7995 0.84 76.2595 0.84C76.7195 0.84 78.1595 2 78.1595 2C78.1595 2 79.4795 3.15 79.9995 3.11C80.5195 3.07 80.7895 3.11 81.0695 3.58C81.1028 3.43721 81.0897 3.28753 81.0322 3.15267C80.9746 3.01782 80.8756 2.9048 80.7495 2.83C80.7495 2.83 81.2595 2.72 81.2595 2.33C81.2595 2.72 81.7595 2.83 81.7595 2.83C81.6334 2.9048 81.5344 3.01782 81.4769 3.15267C81.4194 3.28753 81.4063 3.43721 81.4395 3.58C81.7195 3.15 81.9095 3.08 82.5095 3.11C83.1095 3.14 84.4095 2 84.4095 2C84.4095 2 85.6895 0.84 86.2795 0.84C86.8695 0.84 87.2195 1.16 87.2195 1.57C87.2195 1.98 87.0195 2.13 86.7095 2.13C86.3995 2.13 86.3095 2.07 86.3095 1.89C86.3095 1.71 86.3795 1.61 86.5395 1.61C86.5905 1.60687 86.6413 1.61725 86.687 1.64007C86.7326 1.6629 86.7715 1.69737 86.7995 1.74C86.8069 1.67907 86.8009 1.61726 86.7818 1.55893C86.7628 1.50059 86.7312 1.44713 86.6892 1.40233C86.6473 1.35752 86.596 1.32246 86.539 1.29959C86.4821 1.27673 86.4208 1.26663 86.3595 1.27C86.218 1.27038 86.0812 1.32077 85.9732 1.41226C85.8653 1.50375 85.7931 1.63046 85.7695 1.77C85.7673 1.86972 85.7867 1.96873 85.8264 2.06023C85.8661 2.15173 85.9252 2.23353 85.9995 2.3C85.0995 2.1 84.6195 3.11 84.6195 3.11C85.2795 2.7 85.9395 3.04 86.4195 2.86C86.7053 2.74968 86.9619 2.57519 87.1695 2.35C87.1328 2.53652 87.1499 2.72965 87.219 2.90676C87.2881 3.08387 87.4062 3.23763 87.5595 3.35C87.7129 3.23763 87.831 3.08387 87.9001 2.90676C87.9691 2.72965 87.9863 2.53652 87.9495 2.35C88.1572 2.57519 88.4138 2.74968 88.6995 2.86C89.1795 3.04 89.8395 2.7 90.4995 3.11C90.4995 3.11 90.0195 2.11 89.1195 2.3C89.1903 2.23172 89.2456 2.14911 89.2818 2.0577C89.318 1.9663 89.3343 1.8682 89.3295 1.77C89.3057 1.62876 89.2321 1.50071 89.122 1.40901C89.012 1.31731 88.8728 1.268 88.7295 1.27C88.6691 1.26813 88.6089 1.27933 88.5532 1.30286C88.4975 1.32638 88.4475 1.36166 88.4066 1.40629C88.3658 1.45092 88.3351 1.50384 88.3166 1.56144C88.2981 1.61904 88.2923 1.67994 88.2995 1.74C88.326 1.69817 88.3631 1.6641 88.407 1.64126C88.4509 1.61842 88.5001 1.60764 88.5495 1.61C88.7195 1.61 88.7895 1.74 88.7895 1.89C88.7895 2.04 88.5895 2.13 88.3795 2.13C88.1695 2.13 87.8795 1.98 87.8795 1.57C87.8795 1.16 88.3595 0.84 88.8195 0.84C89.2795 0.84 90.6595 2 90.6595 2C90.6595 2 91.9995 3.15 92.5395 3.11C93.0795 3.07 93.3295 3.11 93.5995 3.58C93.6322 3.43827 93.6199 3.2899 93.5643 3.15549C93.5087 3.02108 93.4127 2.90732 93.2895 2.83C93.2895 2.83 93.7895 2.72 93.7895 2.33C93.7895 2.72 94.2995 2.83 94.2995 2.83C94.1734 2.9048 94.0744 3.01782 94.0169 3.15267C93.9593 3.28753 93.9463 3.43721 93.9795 3.58C94.2595 3.15 94.4495 3.08 95.0395 3.11C95.6295 3.14 96.9195 2 96.9195 2C96.9195 2 98.1895 0.84 98.7795 0.84C99.3695 0.84 99.7195 1.16 99.7195 1.57C99.7195 1.98 99.5195 2.13 99.2195 2.13C98.9195 2.13 98.8195 2.07 98.8195 1.89C98.8195 1.71 98.8795 1.61 99.0495 1.61C99.0991 1.60655 99.1487 1.61686 99.1928 1.6398C99.2369 1.66274 99.2739 1.69741 99.2995 1.74C99.3068 1.67994 99.3009 1.61904 99.2824 1.56144C99.264 1.50384 99.2332 1.45092 99.1924 1.40629C99.1516 1.36166 99.1016 1.32638 99.0459 1.30286C98.9901 1.27933 98.93 1.26813 98.8695 1.27C98.7263 1.268 98.5871 1.31731 98.477 1.40901C98.367 1.50071 98.2934 1.62876 98.2695 1.77C98.2647 1.8682 98.281 1.9663 98.3172 2.0577C98.3535 2.14911 98.4088 2.23172 98.4795 2.3C97.5895 2.1 97.0995 3.11 97.0995 3.11C97.7695 2.7 98.4195 3.04 98.8995 2.86C99.1889 2.75103 99.449 2.57646 99.6595 2.35C99.6217 2.53556 99.6373 2.72805 99.7046 2.90509C99.7718 3.08212 99.888 3.2364 100.04 3.35V1.25C99.9995 0.86 99.5395 0.75 99.5395 0.75Z" fill="#E07771"></path> <path d="M149.559 0.75C149.685 0.675203 149.784 0.562181 149.842 0.427326C149.899 0.292471 149.912 0.142794 149.879 0C149.599 0.43 149.409 0.5 148.809 0.47C148.209 0.44 146.939 1.55 146.939 1.55C146.939 1.55 145.659 2.74 145.069 2.74C144.479 2.74 144.139 2.42 144.139 2.01C144.139 1.6 144.339 1.44 144.639 1.44C144.939 1.44 145.039 1.51 145.039 1.69C145.039 1.87 144.999 2 144.809 2C144.758 2.00313 144.707 1.99276 144.662 1.96993C144.616 1.9471 144.577 1.91263 144.549 1.87C144.541 1.9305 144.547 1.99195 144.566 2.04986C144.586 2.10777 144.617 2.16068 144.66 2.20475C144.702 2.24882 144.753 2.28293 144.81 2.3046C144.867 2.32626 144.928 2.33494 144.989 2.33C145.13 2.33414 145.268 2.28665 145.377 2.19644C145.485 2.10623 145.557 1.97949 145.579 1.84C145.586 1.74247 145.571 1.64464 145.537 1.55318C145.502 1.46172 145.449 1.37877 145.379 1.31C146.269 1.51 146.749 0.5 146.749 0.5C146.089 0.9 145.439 0.57 144.949 0.75C144.663 0.860323 144.407 1.03481 144.199 1.26C144.287 1.1819 144.349 1.07889 144.377 0.964633C144.405 0.850378 144.398 0.730285 144.356 0.620295C144.315 0.510304 144.24 0.415618 144.143 0.348804C144.047 0.28199 143.932 0.246209 143.814 0.246209C143.696 0.246209 143.582 0.28199 143.485 0.348804C143.388 0.415618 143.314 0.510304 143.272 0.620295C143.23 0.730285 143.223 0.850378 143.251 0.964633C143.279 1.07889 143.341 1.1819 143.429 1.26C143.215 1.03718 142.956 0.863203 142.669 0.75C142.189 0.57 141.529 0.9 140.869 0.5C140.869 0.5 141.349 1.5 142.249 1.31C142.177 1.37746 142.121 1.45994 142.085 1.55155C142.049 1.64316 142.033 1.74165 142.039 1.84C142.063 1.98032 142.137 2.10721 142.247 2.19726C142.358 2.28732 142.497 2.33446 142.639 2.33C142.699 2.33339 142.759 2.32356 142.815 2.30121C142.871 2.27885 142.921 2.24452 142.962 2.20064C143.003 2.15675 143.034 2.10439 143.052 2.04726C143.071 1.99012 143.076 1.92961 143.069 1.87C143.043 1.91259 143.006 1.94726 142.962 1.9702C142.918 1.99314 142.869 2.00345 142.819 2C142.649 2 142.589 1.86 142.589 1.72C142.589 1.58 142.779 1.47 142.989 1.47C143.199 1.47 143.489 1.63 143.489 2.04C143.489 2.45 143.019 2.77 142.549 2.77C142.079 2.77 140.689 1.58 140.689 1.58C140.689 1.58 139.369 0.43 138.809 0.47C138.249 0.51 138.029 0.47 137.749 0C137.716 0.141726 137.729 0.2901 137.784 0.424508C137.84 0.558915 137.936 0.672682 138.059 0.75C138.059 0.75 137.559 0.86 137.559 1.25C137.559 0.86 137.059 0.75 137.059 0.75C137.182 0.672682 137.278 0.558915 137.334 0.424508C137.389 0.2901 137.402 0.141726 137.369 0C137.089 0.43 136.899 0.5 136.309 0.47C135.719 0.44 134.429 1.55 134.429 1.55C134.429 1.55 133.159 2.74 132.569 2.74C131.979 2.74 131.629 2.42 131.629 2.01C131.629 1.6 131.829 1.44 132.129 1.44C132.429 1.44 132.529 1.51 132.529 1.69C132.529 1.87 132.469 1.97 132.299 1.97C132.249 1.97345 132.2 1.96314 132.156 1.9402C132.112 1.91726 132.075 1.88259 132.049 1.84C132.042 1.89961 132.047 1.96012 132.066 2.01726C132.085 2.07439 132.115 2.12675 132.156 2.17064C132.197 2.21452 132.248 2.24885 132.303 2.27121C132.359 2.29356 132.419 2.30339 132.479 2.3C132.621 2.30446 132.76 2.25732 132.871 2.16726C132.981 2.07721 133.055 1.95032 133.079 1.81C133.085 1.71165 133.07 1.61316 133.033 1.52155C132.997 1.42994 132.941 1.34746 132.869 1.28C133.769 1.48 134.249 0.47 134.249 0.47C133.589 0.87 132.929 0.54 132.449 0.72C132.162 0.833203 131.903 1.00718 131.689 1.23C131.777 1.1519 131.839 1.04889 131.867 0.934633C131.895 0.820378 131.888 0.700285 131.846 0.590295C131.805 0.480304 131.73 0.385618 131.633 0.318804C131.537 0.25199 131.422 0.216209 131.304 0.216209C131.186 0.216209 131.072 0.25199 130.975 0.318804C130.878 0.385618 130.804 0.480304 130.762 0.590295C130.72 0.700285 130.713 0.820378 130.741 0.934633C130.769 1.04889 130.831 1.1519 130.919 1.23C130.711 1.00481 130.455 0.830323 130.169 0.72C129.679 0.54 129.029 0.87 128.369 0.47C128.369 0.47 128.849 1.47 129.739 1.28C129.67 1.34877 129.616 1.43172 129.581 1.52318C129.547 1.61464 129.532 1.71247 129.539 1.81C129.561 1.94949 129.633 2.07623 129.742 2.16644C129.85 2.25665 129.988 2.30414 130.129 2.3C130.19 2.30494 130.251 2.29626 130.308 2.2746C130.365 2.25293 130.416 2.21882 130.459 2.17475C130.501 2.13068 130.533 2.07777 130.552 2.01986C130.571 1.96195 130.577 1.9005 130.569 1.84C130.541 1.88263 130.502 1.9171 130.457 1.93993C130.411 1.96276 130.36 1.97313 130.309 1.97C130.149 1.97 130.079 1.83 130.079 1.69C130.079 1.55 130.279 1.44 130.479 1.44C130.679 1.44 130.979 1.6 130.979 2.01C130.979 2.42 130.509 2.74 130.049 2.74C129.589 2.74 128.179 1.55 128.179 1.55C128.179 1.55 126.859 0.43 126.309 0.47C125.759 0.51 125.519 0.47 125.239 0C125.206 0.142794 125.219 0.292471 125.276 0.427326C125.334 0.562181 125.433 0.675203 125.559 0.75C125.559 0.75 125.049 0.86 125.049 1.25C125.049 0.86 124.549 0.75 124.549 0.75C124.675 0.675203 124.774 0.562181 124.832 0.427326C124.889 0.292471 124.902 0.142794 124.869 0C124.589 0.43 124.399 0.5 123.799 0.47C123.199 0.44 121.929 1.55 121.929 1.55C121.929 1.55 120.649 2.74 120.059 2.74C119.469 2.74 119.119 2.42 119.119 2.01C119.119 1.6 119.329 1.44 119.629 1.44C119.929 1.44 120.029 1.51 120.029 1.69C120.029 1.87 119.999 2 119.799 2C119.748 2.00313 119.697 1.99276 119.652 1.96993C119.606 1.9471 119.567 1.91263 119.539 1.87C119.531 1.9305 119.537 1.99195 119.556 2.04986C119.576 2.10777 119.607 2.16068 119.65 2.20475C119.692 2.24882 119.743 2.28293 119.8 2.3046C119.857 2.32626 119.918 2.33494 119.979 2.33C120.12 2.33414 120.258 2.28665 120.367 2.19644C120.475 2.10623 120.547 1.97949 120.569 1.84C120.576 1.74247 120.561 1.64464 120.527 1.55318C120.492 1.46172 120.439 1.37877 120.369 1.31C121.259 1.51 121.739 0.5 121.739 0.5C121.079 0.9 120.429 0.57 119.939 0.75C119.653 0.860323 119.397 1.03481 119.189 1.26C119.226 1.07348 119.209 0.880353 119.14 0.70324C119.071 0.526128 118.952 0.372374 118.799 0.26C118.646 0.372374 118.528 0.526128 118.459 0.70324C118.389 0.880353 118.372 1.07348 118.409 1.26C118.201 1.03481 117.945 0.860323 117.659 0.75C117.179 0.57 116.519 0.9 115.859 0.5C115.859 0.5 116.339 1.5 117.239 1.31C117.167 1.37746 117.111 1.45994 117.075 1.55155C117.039 1.64316 117.023 1.74165 117.029 1.84C117.053 1.98032 117.127 2.10721 117.237 2.19726C117.348 2.28732 117.487 2.33446 117.629 2.33C117.689 2.33339 117.749 2.32356 117.805 2.30121C117.861 2.27885 117.911 2.24452 117.952 2.20064C117.993 2.15675 118.024 2.10439 118.042 2.04726C118.061 1.99012 118.066 1.92961 118.059 1.87C118.033 1.91183 117.996 1.9459 117.952 1.96874C117.908 1.99158 117.859 2.00236 117.809 2C117.639 2 117.569 1.86 117.569 1.72C117.569 1.58 117.769 1.47 117.979 1.47C118.189 1.47 118.479 1.63 118.479 2.04C118.479 2.45 118.009 2.77 117.539 2.77C117.069 2.77 115.679 1.58 115.679 1.58C115.679 1.58 114.359 0.43 113.799 0.47C113.239 0.51 113.009 0.47 112.739 0C112.706 0.141726 112.719 0.2901 112.774 0.424508C112.83 0.558915 112.926 0.672682 113.049 0.75C113.049 0.75 112.549 0.86 112.549 1.25C112.549 0.86 112.049 0.75 112.049 0.75C112.172 0.672682 112.268 0.558915 112.324 0.424508C112.379 0.2901 112.392 0.141726 112.359 0C112.079 0.43 111.889 0.5 111.299 0.47C110.709 0.44 109.419 1.55 109.419 1.55C109.419 1.55 108.149 2.74 107.559 2.74C106.969 2.74 106.619 2.42 106.619 2.01C106.619 1.6 106.819 1.44 107.119 1.44C107.419 1.44 107.519 1.51 107.519 1.69C107.519 1.87 107.459 1.97 107.289 1.97C107.239 1.97345 107.19 1.96314 107.146 1.9402C107.102 1.91726 107.065 1.88259 107.039 1.84C107.032 1.89961 107.037 1.96012 107.056 2.01726C107.075 2.07439 107.105 2.12675 107.146 2.17064C107.187 2.21452 107.238 2.24885 107.293 2.27121C107.349 2.29356 107.409 2.30339 107.469 2.3C107.611 2.30446 107.75 2.25732 107.861 2.16726C107.971 2.07721 108.045 1.95032 108.069 1.81C108.075 1.71165 108.06 1.61316 108.023 1.52155C107.987 1.42994 107.931 1.34746 107.859 1.28C108.759 1.48 109.239 0.47 109.239 0.47C108.569 0.87 107.919 0.54 107.439 0.72C107.152 0.833203 106.893 1.00718 106.679 1.23C106.717 1.04444 106.701 0.851946 106.634 0.674915C106.567 0.497884 106.451 0.343595 106.299 0.23C106.146 0.342374 106.028 0.496128 105.959 0.67324C105.889 0.850353 105.872 1.04348 105.909 1.23C105.701 1.00481 105.445 0.830323 105.159 0.72C104.669 0.54 104.019 0.87 103.359 0.47C103.359 0.47 103.839 1.47 104.729 1.28C104.66 1.34877 104.606 1.43172 104.571 1.52318C104.537 1.61464 104.522 1.71247 104.529 1.81C104.551 1.94949 104.623 2.07623 104.732 2.16644C104.84 2.25665 104.978 2.30414 105.119 2.3C105.18 2.30494 105.241 2.29626 105.298 2.2746C105.355 2.25293 105.406 2.21882 105.449 2.17475C105.491 2.13068 105.523 2.07777 105.542 2.01986C105.561 1.96195 105.567 1.9005 105.559 1.84C105.531 1.88263 105.492 1.9171 105.447 1.93993C105.401 1.96276 105.35 1.97313 105.299 1.97C105.139 1.97 105.069 1.83 105.069 1.69C105.069 1.55 105.269 1.44 105.469 1.44C105.669 1.44 105.969 1.6 105.969 2.01C105.969 2.42 105.499 2.74 105.039 2.74C104.579 2.74 103.169 1.55 103.169 1.55C103.169 1.55 101.849 0.43 101.299 0.47C100.749 0.51 100.509 0.47 100.229 0C100.196 0.142794 100.209 0.292471 100.266 0.427326C100.324 0.562181 100.423 0.675203 100.549 0.75C100.549 0.75 100.039 0.86 100.039 1.25V3.36C100.192 3.24763 100.311 3.09387 100.38 2.91676C100.449 2.73965 100.466 2.54652 100.429 2.36C100.64 2.58646 100.9 2.76103 101.189 2.87C101.669 3.05 102.319 2.71 102.989 3.12C102.989 3.12 102.499 2.12 101.609 2.31C101.677 2.24011 101.73 2.15699 101.764 2.06581C101.799 1.97463 101.814 1.87734 101.809 1.78C101.787 1.63959 101.716 1.51171 101.607 1.41985C101.499 1.328 101.361 1.27834 101.219 1.28C101.158 1.27663 101.097 1.28673 101.04 1.30959C100.983 1.33246 100.931 1.36752 100.889 1.41233C100.847 1.45713 100.816 1.51059 100.797 1.56893C100.778 1.62726 100.772 1.68907 100.779 1.75C100.807 1.70737 100.846 1.6729 100.892 1.65007C100.937 1.62724 100.988 1.61687 101.039 1.62C101.199 1.62 101.269 1.75 101.269 1.9C101.269 2.05 101.069 2.14 100.869 2.14C100.669 2.14 100.369 1.99 100.369 1.58C100.369 1.17 100.839 0.85 101.299 0.85C101.759 0.85 103.169 2 103.169 2C103.169 2 104.489 3.12 105.039 3.08C105.589 3.04 105.829 3.08 106.109 3.55C106.142 3.40721 106.129 3.25753 106.072 3.12267C106.014 2.98782 105.915 2.8748 105.789 2.8C105.789 2.8 106.299 2.69 106.299 2.3C106.299 2.69 106.799 2.8 106.799 2.8C106.673 2.8748 106.574 2.98782 106.516 3.12267C106.459 3.25753 106.446 3.40721 106.479 3.55C106.759 3.12 106.959 3.05 107.549 3.08C108.139 3.11 109.419 2 109.419 2C109.419 2 110.699 0.84 111.289 0.84C111.879 0.84 112.229 1.16 112.229 1.57C112.229 1.98 112.029 2.13 111.729 2.13C111.429 2.13 111.319 2.07 111.319 1.89C111.319 1.71 111.389 1.61 111.549 1.61C111.6 1.60687 111.651 1.61725 111.697 1.64007C111.742 1.6629 111.781 1.69737 111.809 1.74C111.816 1.67907 111.81 1.61726 111.791 1.55893C111.772 1.50059 111.741 1.44713 111.699 1.40233C111.657 1.35752 111.606 1.32246 111.549 1.29959C111.492 1.27673 111.43 1.26663 111.369 1.27C111.228 1.27038 111.091 1.32077 110.983 1.41226C110.875 1.50375 110.803 1.63046 110.779 1.77C110.774 1.8682 110.791 1.9663 110.827 2.0577C110.863 2.14911 110.918 2.23172 110.989 2.3C110.089 2.1 109.609 3.11 109.609 3.11C110.269 2.7 110.929 3.04 111.409 2.86C111.695 2.74968 111.951 2.57519 112.159 2.35C112.122 2.53652 112.139 2.72965 112.209 2.90676C112.278 3.08387 112.396 3.23763 112.549 3.35C112.702 3.23763 112.821 3.08387 112.89 2.90676C112.959 2.72965 112.976 2.53652 112.939 2.35C113.147 2.57519 113.403 2.74968 113.689 2.86C114.169 3.04 114.829 2.7 115.489 3.11C115.489 3.11 115.009 2.11 114.109 2.3C114.18 2.23172 114.235 2.14911 114.271 2.0577C114.308 1.9663 114.324 1.8682 114.319 1.77C114.295 1.62876 114.222 1.50071 114.112 1.40901C114.002 1.31731 113.862 1.268 113.719 1.27C113.659 1.26813 113.598 1.27933 113.543 1.30286C113.487 1.32638 113.437 1.36166 113.396 1.40629C113.355 1.45092 113.325 1.50384 113.306 1.56144C113.288 1.61904 113.282 1.67994 113.289 1.74C113.316 1.69817 113.353 1.6641 113.397 1.64126C113.44 1.61842 113.49 1.60764 113.539 1.61C113.709 1.61 113.779 1.74 113.779 1.89C113.779 2.04 113.579 2.13 113.369 2.13C113.159 2.13 112.869 1.98 112.869 1.57C112.869 1.16 113.349 0.84 113.809 0.84C114.269 0.84 115.679 2 115.679 2C115.679 2 116.989 3.12 117.549 3.08C118.109 3.04 118.339 3.08 118.609 3.55C118.642 3.40827 118.629 3.2599 118.574 3.12549C118.518 2.99108 118.422 2.87732 118.299 2.8C118.299 2.8 118.799 2.69 118.799 2.3C118.799 2.69 119.309 2.8 119.309 2.8C119.183 2.8748 119.084 2.98782 119.026 3.12267C118.969 3.25753 118.956 3.40721 118.989 3.55C119.269 3.12 119.459 3.05 120.059 3.08C120.659 3.11 121.929 2 121.929 2C121.929 2 123.199 0.84 123.799 0.84C124.399 0.84 124.729 1.16 124.729 1.57C124.729 1.98 124.529 2.13 124.229 2.13C123.929 2.13 123.829 2.07 123.829 1.89C123.829 1.71 123.899 1.61 124.059 1.61C124.11 1.60687 124.161 1.61725 124.207 1.64007C124.252 1.6629 124.291 1.69737 124.319 1.74C124.325 1.67941 124.318 1.6183 124.298 1.56072C124.278 1.50314 124.246 1.45039 124.205 1.40596C124.163 1.36154 124.113 1.32645 124.057 1.30301C124 1.27957 123.94 1.26832 123.879 1.27C123.736 1.268 123.597 1.31731 123.487 1.40901C123.377 1.50071 123.303 1.62876 123.279 1.77C123.274 1.8682 123.291 1.9663 123.327 2.0577C123.363 2.14911 123.418 2.23172 123.489 2.3C122.599 2.1 122.109 3.11 122.109 3.11C122.779 2.7 123.429 3.04 123.909 2.86C124.198 2.75103 124.459 2.57646 124.669 2.35C124.581 2.4281 124.519 2.53111 124.491 2.64537C124.463 2.75962 124.47 2.87971 124.512 2.98971C124.554 3.0997 124.628 3.19438 124.725 3.2612C124.822 3.32801 124.936 3.36379 125.054 3.36379C125.172 3.36379 125.287 3.32801 125.383 3.2612C125.48 3.19438 125.555 3.0997 125.596 2.98971C125.638 2.87971 125.645 2.75962 125.617 2.64537C125.589 2.53111 125.527 2.4281 125.439 2.35C125.65 2.57646 125.91 2.75103 126.199 2.86C126.679 3.04 127.329 2.7 127.999 3.11C127.999 3.11 127.509 2.11 126.619 2.3C126.687 2.23011 126.74 2.14699 126.774 2.05581C126.809 1.96463 126.824 1.86734 126.819 1.77C126.797 1.62959 126.726 1.50171 126.617 1.40985C126.509 1.318 126.371 1.26834 126.229 1.27C126.168 1.26832 126.108 1.27957 126.052 1.30301C125.995 1.32645 125.945 1.36154 125.903 1.40596C125.862 1.45039 125.83 1.50314 125.81 1.56072C125.791 1.6183 125.783 1.67941 125.789 1.74C125.817 1.69737 125.856 1.6629 125.902 1.64007C125.947 1.61725 125.998 1.60687 126.049 1.61C126.209 1.61 126.279 1.74 126.279 1.89C126.279 2.04 126.079 2.13 125.879 2.13C125.679 2.13 125.379 1.98 125.379 1.57C125.379 1.16 125.849 0.84 126.309 0.84C126.769 0.84 128.179 2 128.179 2C128.179 2 129.499 3.12 130.049 3.08C130.599 3.04 130.839 3.08 131.119 3.55C131.152 3.40721 131.139 3.25753 131.082 3.12267C131.024 2.98782 130.925 2.8748 130.799 2.8C130.799 2.8 131.309 2.69 131.309 2.3C131.309 2.69 131.809 2.8 131.809 2.8C131.685 2.87699 131.588 2.99029 131.531 3.12448C131.473 3.25868 131.459 3.40726 131.489 3.55C131.769 3.12 131.969 3.05 132.559 3.08C133.149 3.11 134.429 2 134.429 2C134.429 2 135.709 0.84 136.299 0.84C136.889 0.84 137.239 1.16 137.239 1.57C137.239 1.98 137.039 2.13 136.739 2.13C136.439 2.13 136.329 2.07 136.329 1.89C136.329 1.71 136.399 1.61 136.569 1.61C136.619 1.60764 136.668 1.61842 136.712 1.64126C136.756 1.6641 136.793 1.69817 136.819 1.74C136.826 1.67907 136.82 1.61726 136.801 1.55893C136.782 1.50059 136.751 1.44713 136.709 1.40233C136.667 1.35752 136.616 1.32246 136.559 1.29959C136.502 1.27673 136.44 1.26663 136.379 1.27C136.238 1.27038 136.101 1.32077 135.993 1.41226C135.885 1.50375 135.813 1.63046 135.789 1.77C135.784 1.8682 135.801 1.9663 135.837 2.0577C135.873 2.14911 135.928 2.23172 135.999 2.3C135.099 2.1 134.619 3.11 134.619 3.11C135.279 2.7 135.939 3.04 136.419 2.86C136.705 2.74968 136.961 2.57519 137.169 2.35C137.082 2.42873 137.022 2.53184 136.995 2.64578C136.968 2.75971 136.976 2.87914 137.018 2.98835C137.06 3.09757 137.135 3.19145 137.231 3.25766C137.328 3.32387 137.442 3.3593 137.559 3.3593C137.676 3.3593 137.79 3.32387 137.887 3.25766C137.984 3.19145 138.058 3.09757 138.1 2.98835C138.142 2.87914 138.15 2.75971 138.123 2.64578C138.097 2.53184 138.036 2.42873 137.949 2.35C138.157 2.57519 138.413 2.74968 138.699 2.86C139.179 3.04 139.839 2.7 140.499 3.11C140.499 3.11 140.019 2.11 139.119 2.3C139.19 2.23172 139.245 2.14911 139.281 2.0577C139.318 1.9663 139.334 1.8682 139.329 1.77C139.305 1.63046 139.233 1.50375 139.125 1.41226C139.017 1.32077 138.881 1.27038 138.739 1.27C138.678 1.26663 138.617 1.27673 138.56 1.29959C138.503 1.32246 138.451 1.35752 138.409 1.40233C138.367 1.44713 138.336 1.50059 138.317 1.55893C138.298 1.61726 138.292 1.67907 138.299 1.74C138.326 1.69817 138.363 1.6641 138.407 1.64126C138.45 1.61842 138.5 1.60764 138.549 1.61C138.719 1.61 138.789 1.74 138.789 1.89C138.789 2.04 138.589 2.13 138.379 2.13C138.169 2.13 137.879 1.98 137.879 1.57C137.879 1.16 138.359 0.84 138.819 0.84C139.279 0.84 140.689 2 140.689 2C140.689 2 142.009 3.12 142.559 3.08C143.109 3.04 143.349 3.08 143.629 3.55C143.659 3.40726 143.645 3.25868 143.587 3.12448C143.53 2.99029 143.433 2.87699 143.309 2.8C143.309 2.8 143.809 2.69 143.809 2.3C143.809 2.69 144.319 2.8 144.319 2.8C144.193 2.8748 144.094 2.98782 144.036 3.12267C143.979 3.25753 143.966 3.40721 143.999 3.55C144.279 3.12 144.469 3.05 145.069 3.08C145.669 3.11 146.939 2 146.939 2C146.939 2 148.209 0.84 148.809 0.84C149.409 0.84 149.739 1.16 149.739 1.57C149.739 1.98 149.539 2.13 149.239 2.13C148.939 2.13 148.839 2.07 148.839 1.89C148.839 1.71 148.909 1.61 149.069 1.61C149.12 1.60687 149.171 1.61725 149.217 1.64007C149.262 1.6629 149.301 1.69737 149.329 1.74C149.335 1.67941 149.328 1.6183 149.308 1.56072C149.288 1.50314 149.256 1.45039 149.215 1.40596C149.173 1.36154 149.123 1.32645 149.067 1.30301C149.01 1.27957 148.95 1.26832 148.889 1.27C148.747 1.26834 148.609 1.318 148.501 1.40985C148.392 1.50171 148.321 1.62959 148.299 1.77C148.294 1.86734 148.31 1.96463 148.344 2.05581C148.378 2.14699 148.431 2.23011 148.499 2.3C147.609 2.1 147.119 3.11 147.119 3.11C147.789 2.7 148.439 3.04 148.919 2.86C149.208 2.75103 149.469 2.57646 149.679 2.35C149.642 2.53652 149.659 2.72965 149.729 2.90676C149.798 3.08387 149.916 3.23763 150.069 3.35V1.25C150.069 0.86 149.559 0.75 149.559 0.75Z" fill="#E07771"></path> <path d="M199.58 0.75C199.706 0.675203 199.805 0.562181 199.863 0.427326C199.92 0.292471 199.934 0.142794 199.9 0C199.62 0.43 199.43 0.5 198.83 0.47C198.23 0.44 197 1.55 197 1.55C197 1.55 195.73 2.74 195.13 2.74C194.53 2.74 194.2 2.42 194.2 2.01C194.2 1.6 194.4 1.44 194.7 1.44C195 1.44 195.1 1.51 195.1 1.69C195.1 1.87 195 2 194.83 2C194.779 2.00313 194.728 1.99276 194.683 1.96993C194.637 1.9471 194.598 1.91263 194.57 1.87C194.564 1.93015 194.572 1.99084 194.591 2.04795C194.611 2.10505 194.643 2.15722 194.685 2.20089C194.727 2.24456 194.777 2.2787 194.833 2.30098C194.89 2.32326 194.95 2.33316 195.01 2.33C195.151 2.33414 195.289 2.28665 195.398 2.19644C195.506 2.10623 195.578 1.97949 195.6 1.84C195.607 1.74247 195.593 1.64464 195.558 1.55318C195.524 1.46172 195.47 1.37877 195.4 1.31C196.29 1.51 196.78 0.5 196.78 0.5C196.11 0.9 195.46 0.57 194.98 0.75C194.691 0.858969 194.431 1.03354 194.22 1.26C194.308 1.1819 194.37 1.07889 194.399 0.964633C194.427 0.850378 194.419 0.730285 194.378 0.620295C194.336 0.510304 194.262 0.415618 194.165 0.348804C194.068 0.28199 193.953 0.246209 193.835 0.246209C193.718 0.246209 193.603 0.28199 193.506 0.348804C193.409 0.415618 193.335 0.510304 193.293 0.620295C193.251 0.730285 193.244 0.850378 193.272 0.964633C193.3 1.07889 193.362 1.1819 193.45 1.26C193.24 1.03354 192.98 0.858969 192.69 0.75C192.21 0.57 191.56 0.9 190.89 0.5C190.89 0.5 191.38 1.5 192.27 1.31C192.198 1.37746 192.142 1.45994 192.106 1.55155C192.07 1.64316 192.054 1.74165 192.06 1.84C192.084 1.98032 192.158 2.10721 192.269 2.19726C192.379 2.28732 192.518 2.33446 192.66 2.33C192.72 2.33339 192.78 2.32356 192.836 2.30121C192.892 2.27885 192.942 2.24452 192.983 2.20064C193.024 2.15675 193.055 2.10439 193.073 2.04726C193.092 1.99012 193.098 1.92961 193.09 1.87C193.065 1.91259 193.028 1.94726 192.984 1.9702C192.939 1.99314 192.89 2.00345 192.84 2C192.67 2 192.61 1.86 192.61 1.72C192.61 1.58 192.8 1.47 193.01 1.47C193.22 1.47 193.51 1.63 193.51 2.04C193.51 2.45 193.04 2.77 192.57 2.77C192.1 2.77 190.71 1.58 190.71 1.58C190.71 1.58 189.39 0.43 188.83 0.47C188.27 0.51 188.05 0.47 187.77 0C187.737 0.142794 187.75 0.292471 187.808 0.427326C187.865 0.562181 187.964 0.675203 188.09 0.75C188.09 0.75 187.58 0.86 187.58 1.25C187.58 0.86 187.08 0.75 187.08 0.75C187.203 0.672682 187.3 0.558915 187.355 0.424508C187.411 0.2901 187.423 0.141726 187.39 0C187.12 0.43 186.92 0.5 186.33 0.47C185.74 0.44 184.46 1.55 184.46 1.55C184.46 1.55 183.18 2.74 182.59 2.74C182 2.74 181.65 2.42 181.65 2.01C181.65 1.6 181.85 1.44 182.15 1.44C182.45 1.44 182.56 1.51 182.56 1.69C182.56 1.87 182.49 1.97 182.32 1.97C182.271 1.97236 182.222 1.96158 182.178 1.93874C182.134 1.9159 182.097 1.88183 182.07 1.84C182.063 1.89961 182.069 1.96012 182.087 2.01726C182.106 2.07439 182.137 2.12675 182.178 2.17064C182.219 2.21452 182.269 2.24885 182.325 2.27121C182.38 2.29356 182.44 2.30339 182.5 2.3C182.643 2.30446 182.782 2.25732 182.892 2.16726C183.002 2.07721 183.076 1.95032 183.1 1.81C183.106 1.71165 183.091 1.61316 183.054 1.52155C183.018 1.42994 182.962 1.34746 182.89 1.28C183.79 1.48 184.27 0.47 184.27 0.47C183.61 0.87 182.95 0.54 182.47 0.72C182.185 0.830323 181.928 1.00481 181.72 1.23C181.757 1.04348 181.74 0.850353 181.671 0.67324C181.602 0.496128 181.484 0.342374 181.33 0.23C181.177 0.342374 181.059 0.496128 180.99 0.67324C180.921 0.850353 180.904 1.04348 180.94 1.23C180.733 1.00481 180.476 0.830323 180.19 0.72C179.71 0.54 179.05 0.87 178.39 0.47C178.39 0.47 178.87 1.47 179.77 1.28C179.698 1.34746 179.642 1.42994 179.606 1.52155C179.57 1.61316 179.554 1.71165 179.56 1.81C179.584 1.94858 179.657 2.0741 179.765 2.16394C179.873 2.25378 180.01 2.30203 180.15 2.3C180.211 2.30494 180.272 2.29626 180.329 2.2746C180.386 2.25293 180.438 2.21882 180.48 2.17475C180.522 2.13068 180.554 2.07777 180.573 2.01986C180.592 1.96195 180.598 1.9005 180.59 1.84C180.562 1.88263 180.523 1.9171 180.478 1.93993C180.432 1.96276 180.381 1.97313 180.33 1.97C180.17 1.97 180.1 1.83 180.1 1.69C180.1 1.55 180.3 1.44 180.51 1.44C180.72 1.44 181.01 1.6 181.01 2.01C181.01 2.42 180.53 2.74 180.07 2.74C179.61 2.74 178.2 1.55 178.2 1.55C178.2 1.55 176.88 0.43 176.33 0.47C175.78 0.51 175.54 0.47 175.26 0C175.227 0.142794 175.24 0.292471 175.298 0.427326C175.355 0.562181 175.454 0.675203 175.58 0.75C175.58 0.75 175.08 0.86 175.08 1.25C175.08 0.86 174.57 0.75 174.57 0.75C174.696 0.675203 174.795 0.562181 174.853 0.427326C174.91 0.292471 174.924 0.142794 174.89 0C174.61 0.43 174.42 0.5 173.82 0.47C173.22 0.44 172 1.55 172 1.55C172 1.55 170.73 2.74 170.13 2.74C169.53 2.74 169.2 2.42 169.2 2.01C169.2 1.6 169.4 1.44 169.7 1.44C170 1.44 170.1 1.51 170.1 1.69C170.1 1.87 170 2 169.82 2C169.769 2.00313 169.718 1.99276 169.673 1.96993C169.627 1.9471 169.588 1.91263 169.56 1.87C169.553 1.9305 169.559 1.99195 169.578 2.04986C169.597 2.10777 169.629 2.16068 169.671 2.20475C169.713 2.24882 169.764 2.28293 169.821 2.3046C169.878 2.32626 169.94 2.33494 170 2.33C170.141 2.33414 170.279 2.28665 170.388 2.19644C170.496 2.10623 170.568 1.97949 170.59 1.84C170.597 1.74247 170.583 1.64464 170.548 1.55318C170.514 1.46172 170.46 1.37877 170.39 1.31C171.28 1.51 171.76 0.5 171.76 0.5C171.1 0.9 170.45 0.57 169.96 0.75C169.675 0.860323 169.418 1.03481 169.21 1.26C169.298 1.1819 169.36 1.07889 169.389 0.964633C169.417 0.850378 169.409 0.730285 169.368 0.620295C169.326 0.510304 169.252 0.415618 169.155 0.348804C169.058 0.28199 168.943 0.246209 168.825 0.246209C168.708 0.246209 168.593 0.28199 168.496 0.348804C168.399 0.415618 168.325 0.510304 168.283 0.620295C168.241 0.730285 168.234 0.850378 168.262 0.964633C168.29 1.07889 168.352 1.1819 168.44 1.26C168.227 1.03718 167.967 0.863203 167.68 0.75C167.2 0.57 166.55 0.9 165.88 0.5C165.88 0.5 166.36 1.5 167.26 1.31C167.188 1.37746 167.132 1.45994 167.096 1.55155C167.06 1.64316 167.044 1.74165 167.05 1.84C167.074 1.98032 167.148 2.10721 167.259 2.19726C167.369 2.28732 167.508 2.33446 167.65 2.33C167.71 2.33339 167.77 2.32356 167.826 2.30121C167.882 2.27885 167.932 2.24452 167.973 2.20064C168.014 2.15675 168.045 2.10439 168.063 2.04726C168.082 1.99012 168.088 1.92961 168.08 1.87C168.055 1.91259 168.018 1.94726 167.974 1.9702C167.929 1.99314 167.88 2.00345 167.83 2C167.66 2 167.6 1.86 167.6 1.72C167.6 1.58 167.79 1.47 168 1.47C168.21 1.47 168.5 1.63 168.5 2.04C168.5 2.45 168.03 2.77 167.56 2.77C167.09 2.77 165.7 1.58 165.7 1.58C165.7 1.58 164.38 0.43 163.82 0.47C163.26 0.51 163.04 0.47 162.76 0C162.728 0.141726 162.74 0.2901 162.796 0.424508C162.851 0.558915 162.947 0.672682 163.07 0.75C163.07 0.75 162.57 0.86 162.57 1.25C162.57 0.86 162.07 0.75 162.07 0.75C162.193 0.672682 162.29 0.558915 162.345 0.424508C162.401 0.2901 162.413 0.141726 162.38 0C162.11 0.43 161.91 0.5 161.32 0.47C160.73 0.44 159.44 1.55 159.44 1.55C159.44 1.55 158.17 2.74 157.58 2.74C156.99 2.74 156.64 2.42 156.64 2.01C156.64 1.6 156.84 1.44 157.14 1.44C157.44 1.44 157.55 1.51 157.55 1.69C157.55 1.87 157.48 1.97 157.31 1.97C157.261 1.97236 157.212 1.96158 157.168 1.93874C157.124 1.9159 157.087 1.88183 157.06 1.84C157.053 1.89961 157.059 1.96012 157.077 2.01726C157.096 2.07439 157.127 2.12675 157.168 2.17064C157.209 2.21452 157.259 2.24885 157.315 2.27121C157.37 2.29356 157.43 2.30339 157.49 2.3C157.633 2.30446 157.772 2.25732 157.882 2.16726C157.992 2.07721 158.066 1.95032 158.09 1.81C158.096 1.71165 158.081 1.61316 158.044 1.52155C158.008 1.42994 157.952 1.34746 157.88 1.28C158.78 1.48 159.26 0.47 159.26 0.47C158.6 0.87 157.94 0.54 157.46 0.72C157.175 0.830323 156.918 1.00481 156.71 1.23C156.747 1.04348 156.73 0.850353 156.661 0.67324C156.592 0.496128 156.474 0.342374 156.32 0.23C156.167 0.342374 156.049 0.496128 155.98 0.67324C155.911 0.850353 155.894 1.04348 155.93 1.23C155.723 1.00481 155.466 0.830323 155.18 0.72C154.69 0.54 154.04 0.87 153.38 0.47C153.38 0.47 153.86 1.47 154.75 1.28C154.681 1.34877 154.627 1.43172 154.592 1.52318C154.558 1.61464 154.544 1.71247 154.55 1.81C154.572 1.94949 154.644 2.07623 154.753 2.16644C154.861 2.25665 154.999 2.30414 155.14 2.3C155.201 2.30494 155.262 2.29626 155.319 2.2746C155.376 2.25293 155.428 2.21882 155.47 2.17475C155.512 2.13068 155.544 2.07777 155.563 2.01986C155.582 1.96195 155.588 1.9005 155.58 1.84C155.552 1.88263 155.513 1.9171 155.468 1.93993C155.422 1.96276 155.371 1.97313 155.32 1.97C155.16 1.97 155.09 1.83 155.09 1.69C155.09 1.55 155.29 1.44 155.49 1.44C155.69 1.44 156 1.6 156 2.01C156 2.42 155.52 2.74 155.06 2.74C154.6 2.74 153.19 1.55 153.19 1.55C153.19 1.55 151.87 0.43 151.32 0.47C150.77 0.51 150.53 0.47 150.25 0C150.217 0.142794 150.23 0.292471 150.288 0.427326C150.345 0.562181 150.444 0.675203 150.57 0.75C150.57 0.75 150.07 0.86 150.07 1.25V3.36C150.222 3.2464 150.338 3.09212 150.405 2.91509C150.473 2.73805 150.488 2.54556 150.45 2.36C150.661 2.58646 150.921 2.76103 151.21 2.87C151.69 3.05 152.34 2.71 153.01 3.12C153.01 3.12 152.52 2.12 151.63 2.31C151.701 2.24172 151.756 2.15911 151.793 2.0677C151.829 1.9763 151.845 1.8782 151.84 1.78C151.816 1.63876 151.743 1.51071 151.633 1.41901C151.523 1.32731 151.384 1.278 151.24 1.28C151.179 1.27832 151.119 1.28957 151.063 1.31301C151.007 1.33645 150.956 1.37154 150.915 1.41596C150.873 1.46039 150.841 1.51314 150.822 1.57072C150.802 1.6283 150.795 1.68941 150.8 1.75C150.828 1.70737 150.867 1.6729 150.913 1.65007C150.958 1.62724 151.009 1.61687 151.06 1.62C151.22 1.62 151.29 1.75 151.29 1.9C151.29 2.05 151.1 2.14 150.89 2.14C150.68 2.14 150.39 1.99 150.39 1.58C150.39 1.17 150.86 0.85 151.32 0.85C151.78 0.85 153.19 2 153.19 2C153.19 2 154.51 3.12 155.06 3.08C155.61 3.04 155.85 3.08 156.13 3.55C156.164 3.40721 156.15 3.25753 156.093 3.12267C156.035 2.98782 155.936 2.8748 155.81 2.8C155.81 2.8 156.32 2.69 156.32 2.3C156.32 2.69 156.82 2.8 156.82 2.8C156.697 2.87732 156.601 2.99108 156.546 3.12549C156.49 3.2599 156.478 3.40827 156.51 3.55C156.78 3.12 156.98 3.05 157.57 3.08C158.16 3.11 159.44 2 159.44 2C159.44 2 160.72 0.84 161.31 0.84C161.9 0.84 162.25 1.16 162.25 1.57C162.25 1.98 162.05 2.13 161.75 2.13C161.45 2.13 161.34 2.07 161.34 1.89C161.34 1.71 161.41 1.61 161.58 1.61C161.63 1.60764 161.679 1.61842 161.723 1.64126C161.767 1.6641 161.804 1.69817 161.83 1.74C161.838 1.67994 161.832 1.61904 161.813 1.56144C161.795 1.50384 161.764 1.45092 161.723 1.40629C161.682 1.36166 161.632 1.32638 161.577 1.30286C161.521 1.27933 161.461 1.26813 161.4 1.27C161.257 1.268 161.118 1.31731 161.008 1.40901C160.898 1.50071 160.824 1.62876 160.8 1.77C160.796 1.8682 160.812 1.9663 160.848 2.0577C160.884 2.14911 160.94 2.23172 161.01 2.3C160.11 2.1 159.63 3.11 159.63 3.11C160.29 2.7 160.95 3.04 161.43 2.86C161.716 2.74968 161.973 2.57519 162.18 2.35C162.144 2.53652 162.161 2.72965 162.23 2.90676C162.299 3.08387 162.417 3.23763 162.57 3.35C162.724 3.23763 162.842 3.08387 162.911 2.90676C162.98 2.72965 162.997 2.53652 162.96 2.35C163.168 2.57519 163.425 2.74968 163.71 2.86C164.19 3.04 164.85 2.7 165.51 3.11C165.51 3.11 165.03 2.11 164.13 2.3C164.201 2.23172 164.256 2.14911 164.293 2.0577C164.329 1.9663 164.345 1.8682 164.34 1.77C164.317 1.63046 164.245 1.50375 164.137 1.41226C164.029 1.32077 163.892 1.27038 163.75 1.27C163.689 1.26663 163.628 1.27673 163.571 1.29959C163.514 1.32246 163.463 1.35752 163.421 1.40233C163.379 1.44713 163.347 1.50059 163.328 1.55893C163.309 1.61726 163.303 1.67907 163.31 1.74C163.338 1.69737 163.377 1.6629 163.423 1.64007C163.468 1.61725 163.519 1.60687 163.57 1.61C163.73 1.61 163.8 1.74 163.8 1.89C163.8 2.04 163.6 2.13 163.39 2.13C163.18 2.13 162.89 1.98 162.89 1.57C162.89 1.16 163.37 0.84 163.83 0.84C164.29 0.84 165.7 2 165.7 2C165.7 2 167.02 3.12 167.57 3.08C168.12 3.04 168.36 3.08 168.64 3.55C168.674 3.40721 168.66 3.25753 168.603 3.12267C168.545 2.98782 168.446 2.8748 168.32 2.8C168.32 2.8 168.82 2.69 168.82 2.3C168.82 2.69 169.33 2.8 169.33 2.8C169.204 2.8748 169.105 2.98782 169.048 3.12267C168.99 3.25753 168.977 3.40721 169.01 3.55C169.29 3.12 169.48 3.05 170.08 3.08C170.68 3.11 172 2 172 2C172 2 173.22 0.84 173.82 0.84C174.42 0.84 174.75 1.16 174.75 1.57C174.75 1.98 174.55 2.13 174.25 2.13C173.95 2.13 173.85 2.07 173.85 1.89C173.85 1.71 173.92 1.61 174.08 1.61C174.131 1.60687 174.182 1.61725 174.228 1.64007C174.273 1.6629 174.312 1.69737 174.34 1.74C174.348 1.67907 174.342 1.61726 174.323 1.55893C174.304 1.50059 174.272 1.44713 174.23 1.40233C174.188 1.35752 174.137 1.32246 174.08 1.29959C174.023 1.27673 173.962 1.26663 173.9 1.27C173.758 1.26834 173.62 1.318 173.512 1.40985C173.404 1.50171 173.332 1.62959 173.31 1.77C173.305 1.86734 173.321 1.96463 173.355 2.05581C173.39 2.14699 173.442 2.23011 173.51 2.3C172.62 2.1 172.13 3.11 172.13 3.11C172.8 2.7 173.45 3.04 173.93 2.86C174.22 2.75103 174.48 2.57646 174.69 2.35C174.602 2.4281 174.54 2.53111 174.512 2.64537C174.484 2.75962 174.491 2.87971 174.533 2.98971C174.575 3.0997 174.649 3.19438 174.746 3.2612C174.843 3.32801 174.958 3.36379 175.075 3.36379C175.193 3.36379 175.308 3.32801 175.405 3.2612C175.502 3.19438 175.576 3.0997 175.618 2.98971C175.659 2.87971 175.667 2.75962 175.639 2.64537C175.61 2.53111 175.548 2.4281 175.46 2.35C175.671 2.57646 175.931 2.75103 176.22 2.86C176.7 3.04 177.35 2.7 178.02 3.11C178.02 3.11 177.53 2.11 176.64 2.3C176.711 2.23172 176.766 2.14911 176.803 2.0577C176.839 1.9663 176.855 1.8682 176.85 1.77C176.826 1.62876 176.753 1.50071 176.643 1.40901C176.533 1.31731 176.394 1.268 176.25 1.27C176.19 1.26813 176.13 1.27933 176.074 1.30286C176.018 1.32638 175.968 1.36166 175.927 1.40629C175.887 1.45092 175.856 1.50384 175.837 1.56144C175.819 1.61904 175.813 1.67994 175.82 1.74C175.846 1.69741 175.883 1.66274 175.927 1.6398C175.971 1.61686 176.021 1.60655 176.07 1.61C176.24 1.61 176.3 1.74 176.3 1.89C176.3 2.04 176.11 2.13 175.9 2.13C175.69 2.13 175.4 1.98 175.4 1.57C175.4 1.16 175.87 0.84 176.34 0.84C176.81 0.84 178.2 2 178.2 2C178.2 2 179.52 3.12 180.08 3.08C180.64 3.04 180.86 3.08 181.14 3.55C181.174 3.40721 181.16 3.25753 181.103 3.12267C181.045 2.98782 180.946 2.8748 180.82 2.8C180.82 2.8 181.33 2.69 181.33 2.3C181.33 2.69 181.83 2.8 181.83 2.8C181.707 2.87732 181.611 2.99108 181.556 3.12549C181.5 3.2599 181.488 3.40827 181.52 3.55C181.79 3.12 181.99 3.05 182.58 3.08C183.17 3.11 184.46 2 184.46 2C184.46 2 185.73 0.84 186.32 0.84C186.91 0.84 187.26 1.16 187.26 1.57C187.26 1.98 187.06 2.13 186.76 2.13C186.46 2.13 186.35 2.07 186.35 1.89C186.35 1.71 186.42 1.61 186.59 1.61C186.64 1.60764 186.689 1.61842 186.733 1.64126C186.777 1.6641 186.814 1.69817 186.84 1.74C186.848 1.67994 186.842 1.61904 186.823 1.56144C186.805 1.50384 186.774 1.45092 186.733 1.40629C186.692 1.36166 186.642 1.32638 186.587 1.30286C186.531 1.27933 186.471 1.26813 186.41 1.27C186.267 1.268 186.128 1.31731 186.018 1.40901C185.908 1.50071 185.834 1.62876 185.81 1.77C185.806 1.8682 185.822 1.9663 185.858 2.0577C185.894 2.14911 185.95 2.23172 186.02 2.3C185.12 2.1 184.64 3.11 184.64 3.11C185.3 2.7 185.96 3.04 186.44 2.86C186.726 2.74968 186.983 2.57519 187.19 2.35C187.154 2.53652 187.171 2.72965 187.24 2.90676C187.309 3.08387 187.427 3.23763 187.58 3.35C187.734 3.23763 187.852 3.08387 187.921 2.90676C187.99 2.72965 188.007 2.53652 187.97 2.35C188.178 2.57519 188.435 2.74968 188.72 2.86C189.2 3.04 189.86 2.7 190.52 3.11C190.52 3.11 190.04 2.11 189.14 2.3C189.211 2.23172 189.266 2.14911 189.303 2.0577C189.339 1.9663 189.355 1.8682 189.35 1.77C189.327 1.63046 189.255 1.50375 189.147 1.41226C189.039 1.32077 188.902 1.27038 188.76 1.27C188.699 1.26663 188.638 1.27673 188.581 1.29959C188.524 1.32246 188.473 1.35752 188.431 1.40233C188.389 1.44713 188.357 1.50059 188.338 1.55893C188.319 1.61726 188.313 1.67907 188.32 1.74C188.348 1.69737 188.387 1.6629 188.433 1.64007C188.478 1.61725 188.529 1.60687 188.58 1.61C188.74 1.61 188.81 1.74 188.81 1.89C188.81 2.04 188.61 2.13 188.41 2.13C188.21 2.13 187.9 1.98 187.9 1.57C187.9 1.16 188.38 0.84 188.84 0.84C189.3 0.84 190.71 2 190.71 2C190.71 2 192.03 3.12 192.58 3.08C193.13 3.04 193.37 3.08 193.65 3.55C193.684 3.40721 193.67 3.25753 193.613 3.12267C193.555 2.98782 193.456 2.8748 193.33 2.8C193.33 2.8 193.83 2.69 193.83 2.3C193.83 2.69 194.34 2.8 194.34 2.8C194.214 2.8748 194.115 2.98782 194.058 3.12267C194 3.25753 193.987 3.40721 194.02 3.55C194.3 3.12 194.49 3.05 195.09 3.08C195.69 3.11 197 2 197 2C197 2 198.24 0.84 198.83 0.84C199.42 0.84 199.76 1.16 199.76 1.57C199.76 1.98 199.56 2.13 199.26 2.13C198.96 2.13 198.86 2.07 198.86 1.89C198.86 1.71 198.93 1.61 199.09 1.61C199.141 1.60687 199.192 1.61725 199.238 1.64007C199.283 1.6629 199.322 1.69737 199.35 1.74C199.358 1.67907 199.352 1.61726 199.333 1.55893C199.314 1.50059 199.282 1.44713 199.24 1.40233C199.198 1.35752 199.147 1.32246 199.09 1.29959C199.033 1.27673 198.972 1.26663 198.91 1.27C198.768 1.26834 198.63 1.318 198.522 1.40985C198.414 1.50171 198.342 1.62959 198.32 1.77C198.315 1.86734 198.331 1.96463 198.365 2.05581C198.4 2.14699 198.452 2.23011 198.52 2.3C197.63 2.1 197.15 3.11 197.15 3.11C197.81 2.7 198.46 3.04 198.95 2.86C199.236 2.74968 199.493 2.57519 199.7 2.35C199.664 2.53652 199.681 2.72965 199.75 2.90676C199.819 3.08387 199.937 3.23763 200.09 3.35V1.25C200.09 0.86 199.58 0.75 199.58 0.75Z" fill="#E07771"></path> <path d="M249.43 0.75C249.556 0.675203 249.655 0.562181 249.713 0.427326C249.77 0.292471 249.783 0.142794 249.75 0C249.47 0.43 249.28 0.5 248.68 0.47C248.08 0.44 246.81 1.55 246.81 1.55C246.81 1.55 245.53 2.74 244.94 2.74C244.35 2.74 244 2.42 244 2C244 1.58 244.21 1.43 244.51 1.43C244.81 1.43 244.91 1.5 244.91 1.68C244.91 1.86 244.84 1.96 244.68 1.96C244.629 1.96313 244.578 1.95276 244.533 1.92993C244.487 1.9071 244.448 1.87263 244.42 1.83C244.413 1.8905 244.418 1.95195 244.438 2.00986C244.457 2.06777 244.488 2.12068 244.531 2.16475C244.573 2.20882 244.624 2.24293 244.681 2.2646C244.738 2.28626 244.799 2.29494 244.86 2.29C245.001 2.29414 245.139 2.24665 245.248 2.15644C245.356 2.06623 245.428 1.93949 245.45 1.8C245.457 1.70247 245.442 1.60464 245.408 1.51318C245.373 1.42172 245.32 1.33877 245.25 1.27C246.14 1.47 246.62 0.46 246.62 0.46C245.96 0.86 245.31 0.53 244.82 0.71C244.534 0.820323 244.278 0.994809 244.07 1.22C244.107 1.03348 244.09 0.840353 244.021 0.66324C243.952 0.486128 243.833 0.332374 243.68 0.22C243.527 0.332374 243.409 0.486128 243.34 0.66324C243.271 0.840353 243.253 1.03348 243.29 1.22C243.082 0.994809 242.826 0.820323 242.54 0.71C242.06 0.53 241.4 0.86 240.74 0.46C240.74 0.46 241.22 1.46 242.12 1.27C242.048 1.33746 241.992 1.41994 241.956 1.51155C241.92 1.60316 241.904 1.70165 241.91 1.8C241.934 1.94032 242.008 2.06721 242.118 2.15726C242.229 2.24732 242.368 2.29446 242.51 2.29C242.57 2.29339 242.63 2.28356 242.686 2.26121C242.742 2.23885 242.792 2.20452 242.833 2.16064C242.874 2.11675 242.905 2.06439 242.923 2.00726C242.942 1.95012 242.948 1.88961 242.94 1.83C242.914 1.87183 242.877 1.9059 242.833 1.92874C242.789 1.95158 242.74 1.96236 242.69 1.96C242.52 1.96 242.45 1.82 242.45 1.68C242.45 1.54 242.65 1.43 242.86 1.43C243.07 1.43 243.36 1.59 243.36 2C243.36 2.41 242.89 2.73 242.42 2.73C241.95 2.73 240.56 1.54 240.56 1.54C240.56 1.54 239.24 0.43 238.68 0.47C238.12 0.51 237.89 0.47 237.62 0C237.588 0.141726 237.6 0.2901 237.655 0.424508C237.711 0.558915 237.807 0.672682 237.93 0.75C237.93 0.75 237.43 0.86 237.43 1.25C237.43 0.86 236.93 0.75 236.93 0.75C237.053 0.672682 237.149 0.558915 237.205 0.424508C237.26 0.2901 237.273 0.141726 237.24 0C236.96 0.43 236.77 0.5 236.18 0.47C235.59 0.44 234.3 1.55 234.3 1.55C234.3 1.55 233 2.74 232.44 2.74C231.88 2.74 231.5 2.42 231.5 2.01C231.5 1.6 231.7 1.44 232 1.44C232.3 1.44 232.4 1.51 232.4 1.69C232.4 1.87 232.34 1.97 232.17 1.97C232.121 1.97345 232.071 1.96314 232.027 1.9402C231.983 1.91726 231.946 1.88259 231.92 1.84C231.913 1.89961 231.918 1.96012 231.937 2.01726C231.956 2.07439 231.986 2.12675 232.027 2.17064C232.069 2.21452 232.119 2.24885 232.174 2.27121C232.23 2.29356 232.29 2.30339 232.35 2.3C232.492 2.30446 232.632 2.25732 232.742 2.16726C232.852 2.07721 232.926 1.95032 232.95 1.81C232.956 1.71165 232.941 1.61316 232.904 1.52155C232.868 1.42994 232.812 1.34746 232.74 1.28C233.64 1.48 234.12 0.47 234.12 0.47C233.45 0.87 232.8 0.54 232.32 0.72C232.033 0.833203 231.774 1.00718 231.56 1.23C231.648 1.1519 231.71 1.04889 231.738 0.934633C231.766 0.820378 231.759 0.700285 231.717 0.590295C231.676 0.480304 231.601 0.385618 231.505 0.318804C231.408 0.25199 231.293 0.216209 231.175 0.216209C231.058 0.216209 230.943 0.25199 230.846 0.318804C230.749 0.385618 230.675 0.480304 230.633 0.590295C230.591 0.700285 230.584 0.820378 230.612 0.934633C230.64 1.04889 230.702 1.1519 230.79 1.23C230.571 0.999632 230.3 0.8248 230 0.72C229.51 0.54 228.86 0.87 228.2 0.47C228.2 0.47 228.68 1.47 229.57 1.28C229.501 1.34877 229.447 1.43172 229.412 1.52318C229.378 1.61464 229.363 1.71247 229.37 1.81C229.392 1.94949 229.464 2.07623 229.573 2.16644C229.681 2.25665 229.819 2.30414 229.96 2.3C230.021 2.30494 230.082 2.29626 230.139 2.2746C230.196 2.25293 230.248 2.21882 230.29 2.17475C230.332 2.13068 230.364 2.07777 230.383 2.01986C230.402 1.96195 230.408 1.9005 230.4 1.84C230.372 1.88263 230.333 1.9171 230.288 1.93993C230.242 1.96276 230.191 1.97313 230.14 1.97C229.98 1.97 229.91 1.83 229.91 1.69C229.91 1.55 230.11 1.44 230.31 1.44C230.51 1.44 230.81 1.6 230.81 2.01C230.81 2.42 230.34 2.74 229.88 2.74C229.42 2.74 228.01 1.55 228.01 1.55C228.01 1.55 226.73 0.43 226.18 0.47C225.63 0.51 225.39 0.47 225.11 0C225.077 0.142794 225.09 0.292471 225.148 0.427326C225.205 0.562181 225.304 0.675203 225.43 0.75C225.43 0.75 224.92 0.86 224.92 1.25C224.92 0.86 224.42 0.75 224.42 0.75C224.546 0.675203 224.645 0.562181 224.703 0.427326C224.76 0.292471 224.773 0.142794 224.74 0C224.46 0.43 224.27 0.5 223.67 0.47C223.07 0.44 221.8 1.55 221.8 1.55C221.8 1.55 220.52 2.74 219.93 2.74C219.34 2.74 219 2.42 219 2C219 1.58 219.2 1.43 219.5 1.43C219.8 1.43 219.91 1.5 219.91 1.68C219.91 1.86 219.84 1.96 219.68 1.96C219.629 1.96313 219.578 1.95276 219.533 1.92993C219.487 1.9071 219.448 1.87263 219.42 1.83C219.413 1.8905 219.418 1.95195 219.438 2.00986C219.457 2.06777 219.488 2.12068 219.531 2.16475C219.573 2.20882 219.624 2.24293 219.681 2.2646C219.738 2.28626 219.799 2.29494 219.86 2.29C220.001 2.29203 220.137 2.24378 220.246 2.15394C220.354 2.0641 220.426 1.93858 220.45 1.8C220.456 1.70165 220.441 1.60316 220.404 1.51155C220.368 1.41994 220.312 1.33746 220.24 1.27C221.14 1.47 221.62 0.46 221.62 0.46C220.96 0.86 220.3 0.53 219.82 0.71C219.534 0.820323 219.278 0.994809 219.07 1.22C219.107 1.03348 219.09 0.840353 219.021 0.66324C218.952 0.486128 218.833 0.332374 218.68 0.22C218.527 0.332374 218.409 0.486128 218.34 0.66324C218.271 0.840353 218.253 1.03348 218.29 1.22C218.082 0.994809 217.826 0.820323 217.54 0.71C217.06 0.53 216.4 0.86 215.74 0.46C215.74 0.46 216.22 1.46 217.12 1.27C217.048 1.33746 216.992 1.41994 216.956 1.51155C216.92 1.60316 216.904 1.70165 216.91 1.8C216.934 1.94032 217.008 2.06721 217.118 2.15726C217.229 2.24732 217.368 2.29446 217.51 2.29C217.57 2.29339 217.63 2.28356 217.686 2.26121C217.742 2.23885 217.792 2.20452 217.833 2.16064C217.874 2.11675 217.905 2.06439 217.923 2.00726C217.942 1.95012 217.948 1.88961 217.94 1.83C217.914 1.87183 217.877 1.9059 217.833 1.92874C217.789 1.95158 217.74 1.96236 217.69 1.96C217.52 1.96 217.45 1.82 217.45 1.68C217.45 1.54 217.65 1.43 217.86 1.43C218.07 1.43 218.36 1.59 218.36 2C218.36 2.41 217.88 2.73 217.42 2.73C216.96 2.73 215.55 1.54 215.55 1.54C215.55 1.54 214.23 0.43 213.67 0.47C213.11 0.51 212.88 0.47 212.61 0C212.578 0.141726 212.59 0.2901 212.645 0.424508C212.701 0.558915 212.797 0.672682 212.92 0.75C212.92 0.75 212.42 0.86 212.42 1.25C212.42 0.86 211.91 0.75 211.91 0.75C212.036 0.675203 212.135 0.562181 212.193 0.427326C212.25 0.292471 212.263 0.142794 212.23 0C211.95 0.43 211.76 0.5 211.17 0.47C210.58 0.44 209.29 1.55 209.29 1.55C209.29 1.55 208 2.74 207.43 2.74C206.86 2.74 206.49 2.42 206.49 2.01C206.49 1.6 206.69 1.44 206.99 1.44C207.29 1.44 207.39 1.51 207.39 1.69C207.39 1.87 207.33 1.97 207.16 1.97C207.111 1.97345 207.061 1.96314 207.017 1.9402C206.973 1.91726 206.936 1.88259 206.91 1.84C206.903 1.89961 206.908 1.96012 206.927 2.01726C206.946 2.07439 206.976 2.12675 207.018 2.17064C207.059 2.21452 207.109 2.24885 207.164 2.27121C207.22 2.29356 207.28 2.30339 207.34 2.3C207.482 2.30446 207.622 2.25732 207.732 2.16726C207.842 2.07721 207.916 1.95032 207.94 1.81C207.946 1.71165 207.931 1.61316 207.894 1.52155C207.858 1.42994 207.802 1.34746 207.73 1.28C208.62 1.48 209.11 0.47 209.11 0.47C208.44 0.87 207.79 0.54 207.31 0.72C207.021 0.828969 206.761 1.00354 206.55 1.23C206.638 1.1519 206.7 1.04889 206.728 0.934633C206.756 0.820378 206.749 0.700285 206.707 0.590295C206.666 0.480304 206.591 0.385618 206.495 0.318804C206.398 0.25199 206.283 0.216209 206.165 0.216209C206.047 0.216209 205.933 0.25199 205.836 0.318804C205.739 0.385618 205.665 0.480304 205.623 0.590295C205.581 0.700285 205.574 0.820378 205.602 0.934633C205.63 1.04889 205.692 1.1519 205.78 1.23C205.564 1.00095 205.297 0.826207 205 0.72C204.52 0.54 203.87 0.87 203.2 0.47C203.2 0.47 203.69 1.47 204.58 1.28C204.511 1.34877 204.457 1.43172 204.422 1.52318C204.388 1.61464 204.373 1.71247 204.38 1.81C204.402 1.94949 204.474 2.07623 204.583 2.16644C204.691 2.25665 204.829 2.30414 204.97 2.3C205.03 2.30316 205.091 2.29326 205.147 2.27098C205.203 2.2487 205.254 2.21456 205.296 2.17089C205.337 2.12722 205.369 2.07505 205.389 2.01795C205.409 1.96084 205.416 1.90015 205.41 1.84C205.382 1.88263 205.343 1.9171 205.298 1.93993C205.252 1.96276 205.201 1.97313 205.15 1.97C204.99 1.97 204.92 1.83 204.92 1.69C204.92 1.55 205.12 1.44 205.32 1.44C205.52 1.44 205.82 1.6 205.82 2.01C205.82 2.42 205.35 2.74 204.89 2.74C204.43 2.74 203 1.55 203 1.55C203 1.55 201.72 0.43 201.17 0.47C200.62 0.51 200.38 0.47 200.1 0C200.067 0.142794 200.08 0.292471 200.138 0.427326C200.195 0.562181 200.294 0.675203 200.42 0.75C200.42 0.75 199.91 0.86 199.91 1.25V3.36C200.063 3.24763 200.182 3.09387 200.251 2.91676C200.32 2.73965 200.337 2.54652 200.3 2.36C200.508 2.58519 200.764 2.75968 201.05 2.87C201.54 3.05 202.19 2.71 202.85 3.12C202.85 3.12 202.37 2.12 201.48 2.31C201.548 2.24011 201.601 2.15699 201.635 2.06581C201.67 1.97463 201.685 1.87734 201.68 1.78C201.658 1.63959 201.587 1.51171 201.479 1.41985C201.37 1.328 201.232 1.27834 201.09 1.28C201.029 1.27663 200.968 1.28673 200.911 1.30959C200.854 1.33246 200.802 1.36752 200.76 1.41233C200.719 1.45713 200.687 1.51059 200.668 1.56893C200.649 1.62726 200.643 1.68907 200.65 1.75C200.678 1.70737 200.717 1.6729 200.763 1.65007C200.808 1.62724 200.859 1.61687 200.91 1.62C201.07 1.62 201.14 1.75 201.14 1.9C201.14 2.05 200.94 2.14 200.74 2.14C200.54 2.14 200.24 1.99 200.24 1.58C200.24 1.17 200.71 0.85 201.17 0.85C201.63 0.85 203 2 203 2C203 2 204.32 3.12 204.87 3.08C205.42 3.04 205.66 3.08 205.94 3.55C205.973 3.40721 205.96 3.25753 205.903 3.12267C205.845 2.98782 205.746 2.8748 205.62 2.8C205.62 2.8 206.13 2.69 206.13 2.3C206.13 2.69 206.63 2.8 206.63 2.8C206.504 2.8748 206.405 2.98782 206.348 3.12267C206.29 3.25753 206.277 3.40721 206.31 3.55C206.59 3.12 206.78 3.05 207.38 3.08C207.98 3.11 209.29 2 209.29 2C209.29 2 210.57 0.84 211.16 0.84C211.75 0.84 212.1 1.16 212.1 1.57C212.1 1.98 211.9 2.13 211.59 2.13C211.28 2.13 211.19 2.07 211.19 1.89C211.19 1.71 211.26 1.61 211.42 1.61C211.471 1.60687 211.522 1.61725 211.568 1.64007C211.613 1.6629 211.652 1.69737 211.68 1.74C211.688 1.67907 211.682 1.61726 211.662 1.55893C211.643 1.50059 211.612 1.44713 211.57 1.40233C211.528 1.35752 211.477 1.32246 211.42 1.29959C211.363 1.27673 211.301 1.26663 211.24 1.27C211.099 1.27038 210.962 1.32077 210.854 1.41226C210.746 1.50375 210.674 1.63046 210.65 1.77C210.645 1.8682 210.662 1.9663 210.698 2.0577C210.734 2.14911 210.789 2.23172 210.86 2.3C209.96 2.1 209.48 3.11 209.48 3.11C210.14 2.7 210.8 3.04 211.28 2.86C211.566 2.74968 211.823 2.57519 212.03 2.35C211.993 2.53652 212.011 2.72965 212.08 2.90676C212.149 3.08387 212.267 3.23763 212.42 3.35C212.573 3.23763 212.692 3.08387 212.761 2.90676C212.83 2.72965 212.847 2.53652 212.81 2.35C213.018 2.57519 213.274 2.74968 213.56 2.86C214.04 3.04 214.7 2.7 215.36 3.11C215.36 3.11 214.88 2.11 213.98 2.3C214.051 2.23172 214.106 2.14911 214.142 2.0577C214.179 1.9663 214.195 1.8682 214.19 1.77C214.166 1.62876 214.093 1.50071 213.983 1.40901C213.873 1.31731 213.733 1.268 213.59 1.27C213.53 1.26813 213.47 1.27933 213.414 1.30286C213.358 1.32638 213.308 1.36166 213.267 1.40629C213.226 1.45092 213.196 1.50384 213.177 1.56144C213.159 1.61904 213.153 1.67994 213.16 1.74C213.187 1.69817 213.224 1.6641 213.268 1.64126C213.312 1.61842 213.361 1.60764 213.41 1.61C213.58 1.61 213.65 1.74 213.65 1.89C213.65 2.04 213.45 2.13 213.24 2.13C213.03 2.13 212.74 1.98 212.74 1.57C212.74 1.16 213.22 0.84 213.68 0.84C214.14 0.84 215.54 2 215.54 2C215.54 2 216.86 3.12 217.42 3.08C217.98 3.04 218.21 3.08 218.48 3.55C218.513 3.40827 218.5 3.2599 218.445 3.12549C218.389 2.99108 218.293 2.87732 218.17 2.8C218.17 2.8 218.67 2.69 218.67 2.3C218.67 2.69 219.18 2.8 219.18 2.8C219.054 2.8748 218.955 2.98782 218.898 3.12267C218.84 3.25753 218.827 3.40721 218.86 3.55C219.14 3.12 219.33 3.05 219.92 3.08C220.51 3.11 221.8 2 221.8 2C221.8 2 223.07 0.84 223.66 0.84C224.25 0.84 224.6 1.16 224.6 1.57C224.6 1.98 224.4 2.13 224.1 2.13C223.8 2.13 223.7 2.07 223.7 1.89C223.7 1.71 223.76 1.61 223.93 1.61C223.98 1.60655 224.029 1.61686 224.073 1.6398C224.118 1.66274 224.154 1.69741 224.18 1.74C224.187 1.67994 224.182 1.61904 224.163 1.56144C224.145 1.50384 224.114 1.45092 224.073 1.40629C224.032 1.36166 223.982 1.32638 223.926 1.30286C223.871 1.27933 223.811 1.26813 223.75 1.27C223.607 1.268 223.468 1.31731 223.358 1.40901C223.248 1.50071 223.174 1.62876 223.15 1.77C223.145 1.8682 223.162 1.9663 223.198 2.0577C223.234 2.14911 223.289 2.23172 223.36 2.3C222.47 2.1 221.98 3.11 221.98 3.11C222.65 2.7 223.3 3.04 223.78 2.86C224.07 2.75103 224.33 2.57646 224.54 2.35C224.452 2.4281 224.39 2.53111 224.362 2.64537C224.334 2.75962 224.341 2.87971 224.383 2.98971C224.425 3.0997 224.499 3.19438 224.596 3.2612C224.693 3.32801 224.808 3.36379 224.925 3.36379C225.043 3.36379 225.158 3.32801 225.255 3.2612C225.351 3.19438 225.426 3.0997 225.467 2.98971C225.509 2.87971 225.516 2.75962 225.488 2.64537C225.46 2.53111 225.398 2.4281 225.31 2.35C225.521 2.57646 225.781 2.75103 226.07 2.86C226.55 3.04 227.2 2.7 227.87 3.11C227.87 3.11 227.38 2.11 226.49 2.3C226.558 2.23011 226.611 2.14699 226.645 2.05581C226.68 1.96463 226.695 1.86734 226.69 1.77C226.668 1.62959 226.597 1.50171 226.488 1.40985C226.38 1.318 226.242 1.26834 226.1 1.27C226.039 1.26663 225.978 1.27673 225.921 1.29959C225.864 1.32246 225.812 1.35752 225.77 1.40233C225.729 1.44713 225.697 1.50059 225.678 1.55893C225.659 1.61726 225.653 1.67907 225.66 1.74C225.688 1.69737 225.727 1.6629 225.773 1.64007C225.818 1.61725 225.869 1.60687 225.92 1.61C226.08 1.61 226.15 1.74 226.15 1.89C226.15 2.04 225.95 2.13 225.75 2.13C225.55 2.13 225.25 1.98 225.25 1.57C225.25 1.16 225.72 0.84 226.18 0.84C226.64 0.84 228.05 2 228.05 2C228.05 2 229.37 3.12 229.92 3.08C230.47 3.04 230.71 3.08 230.99 3.55C231.023 3.40721 231.01 3.25753 230.953 3.12267C230.895 2.98782 230.796 2.8748 230.67 2.8C230.67 2.8 231.18 2.69 231.18 2.3C231.18 2.69 231.68 2.8 231.68 2.8C231.554 2.8748 231.455 2.98782 231.398 3.12267C231.34 3.25753 231.327 3.40721 231.36 3.55C231.64 3.12 231.84 3.05 232.43 3.08C233.02 3.11 234.3 2 234.3 2C234.3 2 235.58 0.84 236.17 0.84C236.76 0.84 237.11 1.16 237.11 1.57C237.11 1.98 236.91 2.13 236.61 2.13C236.31 2.13 236.2 2.07 236.2 1.89C236.2 1.71 236.27 1.61 236.43 1.61C236.481 1.60687 236.532 1.61725 236.578 1.64007C236.623 1.6629 236.662 1.69737 236.69 1.74C236.698 1.67907 236.692 1.61726 236.672 1.55893C236.653 1.50059 236.622 1.44713 236.58 1.40233C236.538 1.35752 236.487 1.32246 236.43 1.29959C236.373 1.27673 236.311 1.26663 236.25 1.27C236.109 1.27038 235.972 1.32077 235.864 1.41226C235.756 1.50375 235.684 1.63046 235.66 1.77C235.655 1.8682 235.672 1.9663 235.708 2.0577C235.744 2.14911 235.799 2.23172 235.87 2.3C234.97 2.1 234.49 3.11 234.49 3.11C235.15 2.7 235.81 3.04 236.29 2.86C236.576 2.74968 236.832 2.57519 237.04 2.35C237.003 2.53652 237.021 2.72965 237.09 2.90676C237.159 3.08387 237.277 3.23763 237.43 3.35C237.583 3.23763 237.702 3.08387 237.771 2.90676C237.84 2.72965 237.857 2.53652 237.82 2.35C238.028 2.57519 238.284 2.74968 238.57 2.86C239.05 3.04 239.71 2.7 240.37 3.11C240.37 3.11 239.89 2.11 238.99 2.3C239.061 2.23172 239.116 2.14911 239.152 2.0577C239.189 1.9663 239.205 1.8682 239.2 1.77C239.176 1.62876 239.103 1.50071 238.993 1.40901C238.883 1.31731 238.743 1.268 238.6 1.27C238.54 1.26813 238.48 1.27933 238.424 1.30286C238.368 1.32638 238.318 1.36166 238.277 1.40629C238.236 1.45092 238.206 1.50384 238.187 1.56144C238.169 1.61904 238.163 1.67994 238.17 1.74C238.197 1.69817 238.234 1.6641 238.278 1.64126C238.322 1.61842 238.371 1.60764 238.42 1.61C238.59 1.61 238.66 1.74 238.66 1.89C238.66 2.04 238.46 2.13 238.25 2.13C238.04 2.13 237.75 1.98 237.75 1.57C237.75 1.16 238.23 0.84 238.69 0.84C239.15 0.84 240.56 2 240.56 2C240.56 2 241.87 3.12 242.43 3.08C242.99 3.04 243.22 3.08 243.49 3.55C243.523 3.40827 243.51 3.2599 243.455 3.12549C243.399 2.99108 243.303 2.87732 243.18 2.8C243.18 2.8 243.68 2.69 243.68 2.3C243.68 2.69 244.19 2.8 244.19 2.8C244.064 2.8748 243.965 2.98782 243.908 3.12267C243.85 3.25753 243.837 3.40721 243.87 3.55C244.15 3.12 244.34 3.05 244.94 3.08C245.54 3.11 246.81 2 246.81 2C246.81 2 248.08 0.84 248.68 0.84C249.28 0.84 249.61 1.16 249.61 1.57C249.61 1.98 249.41 2.13 249.11 2.13C248.81 2.13 248.71 2.07 248.71 1.89C248.71 1.71 248.78 1.61 248.94 1.61C248.991 1.60687 249.042 1.61725 249.088 1.64007C249.133 1.6629 249.172 1.69737 249.2 1.74C249.206 1.67941 249.199 1.6183 249.179 1.56072C249.159 1.50314 249.128 1.45039 249.086 1.40596C249.044 1.36154 248.994 1.32645 248.938 1.30301C248.881 1.27957 248.821 1.26832 248.76 1.27C248.617 1.268 248.478 1.31731 248.368 1.40901C248.258 1.50071 248.184 1.62876 248.16 1.77C248.155 1.8682 248.172 1.9663 248.208 2.0577C248.244 2.14911 248.299 2.23172 248.37 2.3C247.48 2.1 246.99 3.11 246.99 3.11C247.66 2.7 248.31 3.04 248.79 2.86C249.079 2.75103 249.34 2.57646 249.55 2.35C249.512 2.53556 249.528 2.72805 249.595 2.90509C249.662 3.08212 249.779 3.2364 249.93 3.35V1.25C249.93 0.86 249.43 0.75 249.43 0.75Z" fill="#E07771"></path> </g> <defs> <clipPath id="clip0_134_3655"> <rect width="250" height="4" fill="white"></rect> </clipPath> </defs> </svg> 